<svg id="Layer_3" data-name="Layer 3" xmlns="http://www.w3.org/2000/svg" viewBox="0 0 553.71 475.98"><defs><style>.cls-1{opacity:0.5;}.cls-2{fill:#201600;}.cls-3,.cls-4{font-size:79.88px;font-family:Consolas;}.cls-24,.cls-3{fill:#dca45c;}.cls-25,.cls-4{fill:#ab7849;}.cls-11,.cls-5{fill:none;}.cls-5{stroke:#e9a854;}.cls-11,.cls-5,.cls-6{stroke-miterlimit:10;stroke-width:4px;}.cls-6{fill:#e9a854;}.cls-11,.cls-6{stroke:#201600;}.cls-7{fill:#fff;}.cls-8{fill:#f8e2d2;}.cls-9{fill:#3c3735;}.cls-10{fill:#3c3736;}.cls-12{fill:#e3b373;}.cls-13{fill:#0d0d0e;}.cls-14{fill:#0b0b0d;}.cls-15{fill:#352d2f;}.cls-16{fill:#8c8182;}.cls-17{fill:#b2aeb2;}.cls-18{fill:#d2d1d4;}.cls-19{fill:#625759;}.cls-20{fill:#b5b0b2;}.cls-21{fill:#bbb7ba;}.cls-22{fill:#7a7174;}.cls-23{fill:#e9bb7e;}</style></defs><title>Untitled-1</title><g class="cls-1"><path class="cls-2" d="M373.77,596.93c1.85,3.92,5.25,5.24,9.26,5.8a17.15,17.15,0,0,0,7.1-.13,17.78,17.78,0,0,0,2.51-.77c2.53-1.18,5-2.41,7.51-3.66a12,12,0,0,0,4.37-4.35c.32-.47.69-.9,1.37-1.78-.41,7.29-3.65,12.7-7.73,17.63-1.27,1.55-3.28,2.5-5,3.65-.79.53-1.68.9-2.74,1.46,2.43,1,4.67,1.89,6.88,2.84s4.33,2,6.52,2.88c7.08,3,14.16,5.91,21.27,8.76a3.34,3.34,0,0,1,2.41,2.38c0,.15,0,.35.14.45,1.91,2.08,2.62,4.83,4,7.21,3.58,6.32,7.35,12.54,11,18.8a11.84,11.84,0,0,1,1.77,7.32,15.39,15.39,0,0,0,0,2.88,7.69,7.69,0,0,1-1.09,4.33,185.35,185.35,0,0,1-22.61,33.24,176.38,176.38,0,0,1-37.51,33,174,174,0,0,1-64.7,26c-4.63.85-9.26,1.65-13.92,2.27-2.84.38-5.73.34-8.6.53-1.46.1-2.92-.18-4.33.84-.83.59-2.12.25-3.12-.52-1.58-1.22-3.22-2.37-4.9-3.46a40.57,40.57,0,0,0-3.76-2.1,11.24,11.24,0,0,0-11.42.42c-3.67,2.11-4.22,2.14-7.4-.66-2.08-1.83-3.83-4.05-5.76-6.07-2.48-2.6-4.91-5.25-7.51-7.72a14.74,14.74,0,0,0-9.66-4.17,9.22,9.22,0,0,0-6.79,2.52,21,21,0,0,0-4.91,7l-1.55,3.32c-.71-.21-1.32-.36-1.9-.57-3.66-1.3-3.72-1.44-4.13-5.38a62.07,62.07,0,0,0-1-6.81,28.5,28.5,0,0,0-1.75-5.21,5.55,5.55,0,0,0-4.88-3.69c-2.67-.2-4.45,1.17-5.69,3.27-1.06,1.79-1.88,3.71-2.79,5.58-.35.71-.68,1.44-1.14,2.41a23.27,23.27,0,0,1-5.74-3.32c-.53-.45-.6-1.8-.43-2.66,1.43-7.28,3-14.54,4.46-21.8.94-4.52,2-9,2.85-13.57.83-4.37,1.48-8.77,2.21-13.16.45-2.73,1-5.46,1.33-8.21a23.13,23.13,0,0,0,0-5.26c-.21-1.8-1-3.55-2.93-4s-4-.25-5.3,1.75-2.82,4.28-4,6.55a152.34,152.34,0,0,0-8.81,21.5c-2.68,8.12-5.22,16.28-7.83,24.42-.24.74-.54,1.47-.89,2.43-4.15-2.18-6.64-5.91-10.1-8.9,1.26-3.49,2.35-7,3.76-10.35q8.37-19.89,16.89-39.71c4.3-10.07,8.71-20.09,12.91-30.2a59.33,59.33,0,0,0,2.79-9.09c.44-1.81.8-3.75-.21-5.57-.43-1.9-1.22-2.7-3-2.8a8.49,8.49,0,0,0-2.12.26c-4.16.89-7.64,3.19-11,5.59A115.17,115.17,0,0,0,168,647.49a181.57,181.57,0,0,0-16.69,20.94c-4.09,6.09-7.83,12.41-11.72,18.63-.45.71-.65,1.71-1.82,1.62-3.3-5.66-6.81-11.2-9.87-17a167.47,167.47,0,0,1-15.53-42.39c-.68-3.11-1.24-6.26-1.84-9.39a1.86,1.86,0,0,1,0-.47c.09-.14.15-.35.27-.38,3.92-1.1,6.91-3.91,10.44-5.72,6.83-3.5,13.72-6.87,20.53-10.38,5.75-3,11.71-5.52,17.15-9.09a53.14,53.14,0,0,1,5.72-2.94c1.45-.71,2.25-1.73,1.9-3.44a11.73,11.73,0,0,1,0-1.19c-.15-1.79-.24-3.56,1.7-4.76-5.49-4-10.76-7.71-13.5-13.92a22.72,22.72,0,0,1-8.42.07,17.47,17.47,0,0,1-10.12-6c-1.23-1.43-12.67-11.62-9.8-28.49a57.85,57.85,0,0,1,4.93-18.89c1.78-4,6.3-13.33,6.83-14.44l-6.57,1.58-.36-.38c.78-1.31,10.87-17,11.84-18.13l-.3-.37c-1,.25-4.25,1.6-5.57,1.93.16-1.31,2.33-3.49,2.62-4.48.85-2.81,1.82-5.59,2.73-8.39.2-.6.42-5.61.55-7.49a25.35,25.35,0,0,0-.85-6.82c-.69-3.33-.95-6.76-1.58-10.11-.58-3.12-1.53-6.16-2.09-9.27a62.61,62.61,0,0,1-.68-7.12c-.12-2.15-.16-4.32-.09-6.47a35.63,35.63,0,0,1,.51-4.23c.28-1.87.49-3.76.94-5.59,2.11-8.62,5.27-16.73,11.4-23.4,1.84-2,3.62-4.06,5.38-6.13a49.8,49.8,0,0,1,7.64-6.86c4.92-3.82,9.67-7.85,14.64-11.59,3.13-2.35,6.54-4.32,9.77-6.52,1.25-.84,2.36-1.89,3.57-2.8a8.51,8.51,0,0,1,1.64-.92c1.54-.68,47-29.63,55.25-32a10.75,10.75,0,0,1,2.61-.2c5.42-.15,10.85-.21,16.27-.45,5.74-.25,11.47-.64,17.2-1a5.3,5.3,0,0,1,4.64,2,17.65,17.65,0,0,0,2.69,2.33,10.32,10.32,0,0,1,4,10.34c-.19,1.31-.52,2.61-.85,4.2l9.17-3.08c1.94-.41,3.88-.79,5.81-1.25,1-.24,1.93-.62,2.9-.94a39.67,39.67,0,0,1,4.46-.56,73.3,73.3,0,0,1,18,1.94,29,29,0,0,1,13.16,7c3.4,3.14,7,6.13,9.93,9.68,5.86,7.14,12.26,13.91,16.66,22.15a38.92,38.92,0,0,1,4.52,14c.42,3.68,1.1,7.33,1.64,11,.13.94.16,1.9.23,2.86l0,1.44c0,6.46,0,12.92-.08,19.39-.05,4.86-.28,9.72-.3,14.58a32.82,32.82,0,0,0,3.94,15.85,27.51,27.51,0,0,0,3.26,4.38,5.85,5.85,0,0,0,4.46,2,48.21,48.21,0,0,0,6.6-.64c3.24-.3,6.09-1.61,9.16-2.28a8.06,8.06,0,0,0,4.14-2.21c1.63-1.63,3.25-3.28,4.88-4.92.83-.26,1.71-.85,2.26.42.1,5.34-2.16,9.72-5.61,13.56-1.81,2-3.65,3.94-5.33,6.07-2.11,2.65-4.83,4.82-7.29,7.2-.23.26-.46.51-.68.77l.78.11c2.62.05,5.24,0,7.85.18a25.6,25.6,0,0,1,5.36.93c3.21.95,4.4,2.77,4.4,6.18l-.92.09a5.47,5.47,0,0,0-4.26-1.84,13.41,13.41,0,0,0-8,1.78c-2.19,1.29-4.61,2.2-6.92,3.3-5.7,2.71-11.41,5.42-16.59,9.08-.71.5-1.35,1.07-2.09,1.67,9.22,4.5,22.69,5.91,36.41-7.71a3.55,3.55,0,0,1,1.24,4.73,7,7,0,0,1-1.32,2,2.6,2.6,0,0,0-.82,2.37,8.48,8.48,0,0,1-1.1,5.3,32.74,32.74,0,0,1-7.06,9c-1.6,1.55-3.11,3.2-4.62,4.85a27.6,27.6,0,0,1-10.68,7.1l-2,.81a6.32,6.32,0,0,0,.47,1c3.9,5.34,4.64,11.3,3.32,17.58a27.29,27.29,0,0,1-8.63,15.41,3.94,3.94,0,0,0-1.11,1.52q-2.45,6.49-4.79,13a16.61,16.61,0,0,0-1.16,8.46,11.63,11.63,0,0,0,1.66,4.65,6.64,6.64,0,0,0,9.53,1.59,46.13,46.13,0,0,0,3.69-3c.53-.44,1.05-.9,1.67-1.44.51,1.4-.2,2.27-.78,3.07-2,2.79-4.44,5-7.88,5.92a41,41,0,0,1-5.15,1.08,8.47,8.47,0,0,1-7.06-2.3l-1.52-2.23A2.62,2.62,0,0,0,373.77,596.93Zm1.63-153.25.54,2,.42-.09-.41-1.86-.18-4.85q.35-12,.68-23.92c0-.72,0-1.44,0-2.16.58-7.69-.33-15.28-1.65-22.83a9.5,9.5,0,0,0-1.77-5.73c.32,1.92.63,3.85.95,5.77.12,1.58.29,3.17.35,4.75a108,108,0,0,1-.9,19.77,38.24,38.24,0,0,0-.53,4.25c-.06,3,0,6.05,0,9.08-.1.12-.27.23-.29.37-.51,3.29.27,6.43,1.15,9.56,0,.11.25.16.39.25l.22.84C374.77,440.5,375.08,442.09,375.4,443.68ZM282.76,330.54l-.77.15.73.7c1.12,1,2.31,1.95,3.33,3.06s1.76,2.29,2.79,3.66a13.37,13.37,0,0,1,.2-1.52c.73-2.75-.17-4.73-2.79-5.63A16.58,16.58,0,0,0,282.76,330.54Z" transform="translate(-7.88 -313.78)"/><path class="cls-2" d="M200.66,628c.15,3.56-1.22,6.73-2.56,9.88-1.46,3.43-3,6.82-4.6,10.18q-4.74,9.95-9.56,19.85c-7.78,16-15.23,32.18-21.36,48.92a10.86,10.86,0,0,1-.65,1.13c-.94-.89-1.85-1.62-2.61-2.49-4-4.62-8.12-9.21-12-13.94-2.54-3.07-4.82-6.36-7.2-9.56a5,5,0,0,1-.46-1.09c.28-.38.59-.75.83-1.15,2.64-4.37,5.17-8.8,7.92-13.1a184.11,184.11,0,0,1,30.09-36.4,114.89,114.89,0,0,1,11-8.85,48.6,48.6,0,0,1,7.81-4.07A2.5,2.5,0,0,1,200.66,628Z" transform="translate(-7.88 -313.78)"/><path class="cls-2" d="M186.66,737.74l-4.38-3c3.69-11.71,7.26-23.36,11.81-34.73a26.66,26.66,0,0,1-.86,7.25c-.57,2.56-1.19,5.1-1.75,7.66s-1,5-1.57,7.44-1.17,5.1-1.72,7.66S187.21,735,186.66,737.74Z" transform="translate(-7.88 -313.78)"/><path class="cls-2" d="M233.48,760.13c1.08-2,1.91-3.78,3-5.41s1.73-1.61,3.44-.7a23.39,23.39,0,0,1,6.25,5.48,40.85,40.85,0,0,1,3.63,4.66A123.54,123.54,0,0,1,233.48,760.13Z" transform="translate(-7.88 -313.78)"/><path class="cls-2" d="M313,336.27c-1,.32-1.91.7-2.9.94-1.93.46-3.87.84-5.81,1.25,1.46-1.7,3.59-1.88,5.56-2.15C310.8,336.17,311.92,335.52,313,336.27Z" transform="translate(-7.88 -313.78)"/><path class="cls-2" d="M419.94,452.35c-.55-1.27-1.43-.68-2.26-.42l2.33-3.88.6,0C420.39,449.47,420.16,450.91,419.94,452.35Z" transform="translate(-7.88 -313.78)"/><path class="cls-2" d="M194.42,698.61l1.27-3.92.56.18c-.4,1.25-.8,2.5-1.19,3.75Z" transform="translate(-7.88 -313.78)"/><path class="cls-2" d="M373.77,596.93a2.62,2.62,0,0,1-.9-2.8l1.52,2.23Z" transform="translate(-7.88 -313.78)"/><path class="cls-2" d="M381.62,405.8l0-1.44A.85.85,0,0,1,381.62,405.8Z" transform="translate(-7.88 -313.78)"/><path class="cls-2" d="M420.61,448l-.6,0,.45-1.18.36.1Z" transform="translate(-7.88 -313.78)"/><path class="cls-2" d="M418.5,487.44l.92-.09c-.08.27-.15.54-.22.81Z" transform="translate(-7.88 -313.78)"/><path class="cls-2" d="M401.81,480.06,401,480c.22-.26.45-.51.68-.77C401.74,479.47,401.78,479.76,401.81,480.06Z" transform="translate(-7.88 -313.78)"/><path class="cls-2" d="M194.42,698.61h.64l-.52.79Z" transform="translate(-7.88 -313.78)"/><path class="cls-2" d="M373,427.88c.69,3.36,1.72,6.67,1.25,10.18-.14-.09-.36-.14-.39-.25-.88-3.13-1.66-6.27-1.15-9.56C372.71,428.11,372.88,428,373,427.88Z" transform="translate(-7.88 -313.78)"/><path class="cls-2" d="M374.84,390l-.82,0c-.32-1.92-.63-3.85-.95-5.77A9.5,9.5,0,0,1,374.84,390Z" transform="translate(-7.88 -313.78)"/><path class="cls-2" d="M374.45,438.9h1.32l.18,4.85-.55-.07C375.08,442.09,374.77,440.5,374.45,438.9Z" transform="translate(-7.88 -313.78)"/><path class="cls-2" d="M375.4,443.68l.55.07c.14.62.27,1.24.41,1.86l-.42.09Z" transform="translate(-7.88 -313.78)"/><path class="cls-2" d="M282.76,330.54l0,.85-.73-.7Z" transform="translate(-7.88 -313.78)"/></g><text class="cls-3" transform="translate(0 404.22)">&lt;img&gt;</text><text class="cls-4" transform="translate(290.2 126.45)">&lt;/img&gt;</text><ellipse class="cls-5" cx="271.38" cy="281.16" rx="194.7" ry="192.81"/><circle class="cls-6" cx="308.36" cy="254.2" r="174.28"/><path class="cls-7" d="M186.73,471.36s29-24.54,45.66-48.95c.94-1.34,10-5.61,13.23-3.63.59.36,50-3.88,55.43-26.52,31.79,1.45,16.38,42.79,34.07,77.72,11,16,31,17.51,33.53,18.68,1.3.61,17.37-1.27,20-1.1,2.85.18-3,13.53-3.45,15.7C368.65,538.49,354.81,533,350.94,533c-1.17,0-3.1,13-3.42,13.82-.95,2.37-.32,10.93.3,11.75-4.54,25.85-46.16,100-48.76,104.56-1.1,2-5.67,2.19-30.33.66-.9-.64-20.88-8.35-24-13.33C243.88,649,235,639.6,234,638.27c-3.73-4.85-5.91-19.67-5.93-22.93,0-4.22,2.18-21.67,1.66-22.14C191.82,556.35,186.73,471.36,186.73,471.36Z" transform="translate(-7.88 -313.78)"/><path class="cls-7" d="M394.72,670.08c1.94-6.24,3.81-12.52,6.89-18.33,2.62-5,13.67-36.5,36.63-40.12,1.88-.75,9.59-1.71,11.63-2,1.88-.25,4.33,3.45,6.23,3.4,2.35-.06,14.06,26,15.5,28.63-20.32,46.49-64.26,73.74-69.64,76.54-2.62,1.36-10.64,5.44-13.26,6.8C388.16,725.29,393.74,673.27,394.72,670.08Z" transform="translate(-7.88 -313.78)"/><path class="cls-7" d="M152.8,627.5c-2.83-3.13-9.93-22.39-6.84-30.36,1.84-.09,6.76-3.54,7.69-1.67s1.62,11.19.12,16.16C153.4,614.86,153,627.5,152.8,627.5Z" transform="translate(-7.88 -313.78)"/><path class="cls-8" d="M358.37,484.64c.23.2,18.36,3.4,30.29,2.92,1,2.63,1.77,7.05.78,9.62-2.84,7.36-2.5,14.37-8.23,19.91-1.6,1.54-12.6,12.36-15,14.11-2.17,1.61-10.28,2.69-12.86,2.2a1.53,1.53,0,0,0-1.71,1c-1.62,3.12-3.26,6.22-4.9,9.33a1.91,1.91,0,0,0,.07,2.24c2.18,2.77,2,6,1.35,9.09a42.49,42.49,0,0,1-4.12,12c.39.46-17.52,48.84-40.45,86.16-2.58,17.39-51.33,17.28-64.76-8.41-3-2.62-3.89-6.9-6.78-9.63a17,17,0,0,1-3.2-4.15c-2.62-4.74,2.28-35.07,2.38-36.09.37-3.71-7.07-2.69-6.65-6.39.24-2.21,4.22-1.75-.17-13.26-3.38-3.87-11.27-30.63-13.47-37.19-2.41-7.18-11.56-76-11.92-78.39,9-9.35,32.21-32.18,38.49-41.67,10.46.65,50-9.59,50.53-10,2.52-1.85,9.85-6.16,13-15.76,2.36-2.25,24.09,6.77,22.45,22.64C323.65,414.91,326.84,482.39,358.37,484.64ZM246.88,608.43a49.66,49.66,0,0,1,1.08,5.78,20.79,20.79,0,0,0,2.65,8.32,17.55,17.55,0,0,1,1.72,3.9c.95,3.65,3.58,5.93,6.29,8.18a5.35,5.35,0,0,0,1.49.75,4,4,0,0,0,4.5-1.29c.95-1.32.85-1.86-.52-3.83a2.91,2.91,0,0,1-.66-1.47c0-3.67-1.86-6.7-3.19-9.91a18.87,18.87,0,0,0-2.5-4.85c-2.16-2.66-2.51-5.91-3.4-9-.53-1.78-1.19-2.82-2.87-3a3.37,3.37,0,0,0-3.92,2.33A34.92,34.92,0,0,0,246.88,608.43Z" transform="translate(-7.88 -313.78)"/><path class="cls-8" d="M453.93,609.63c1.3,1.19,4.17,5.44,5.83,7.25a7.07,7.07,0,0,1,1.17,1.47A101.07,101.07,0,0,1,467,631.29c1.24,3.54,2.75,7,4.14,10.45,1.31,3.29-17.39,30.56-20.61,34.08-4.52,4.95-9.7,11.53-14.64,16s-11.21,10.47-16.5,14.42c-9.31,6.94-29.7,18.48-30.71,18.73.46-2.75-.3-8.35,0-10.77,7.07-55.18,25.9-85.13,28.42-86.93C424.64,616.4,449.07,605.18,453.93,609.63Z" transform="translate(-7.88 -313.78)"/><path class="cls-9" d="M404.36,589.06c3.49,1,37.89,15,41.95,16.79.8.36,3.49,4.58,3.1,4.39-1.43-.68-20,4.17-22.5,6.49-4.1,3.84-26.27,18.87-35.11,83.35-.81,7.55-1.58,15.1-2.36,22.65l0,.24c-.14,2.72-1.37,4.3-4.07,5.43a178.88,178.88,0,0,1-44.4,12.23,174.27,174.27,0,0,1-94.6-13.42c-.48-.21-.94-.49-1.58-.82.59-.77,1-1.42,1.53-2,4.83-5.66,9.73-11.25,14.47-17,44.63-40.21,63.58-94.78,69-105.28,1.39-2.68,18.7-50.2,23.79-48.34C364.91,564.59,370,571,369.65,575.27,369.62,575.66,398.83,587.51,404.36,589.06Z" transform="translate(-7.88 -313.78)"/><path class="cls-10" d="M202.78,734.27c-1.1.21-9-41.9-10.58-43.43-20.54-20.13-30-34.81-38.74-62.2-.56-1.75-1.71-22.23-1.44-26a13.27,13.27,0,0,1,9.7-12.32c3.66-1.07,26.08-8.17,28.75-9.45,9.28-1.43,6.41-5.79,6.32-7L209.35,569c1.85,1.47,21,24.46,21.56,30,.47,4.58-2.26,19-2.82,21.77-3.58,29.68,2.89,46.68,4.11,50.22,3.57,10.35,8.8,33.93,8.44,34.91-1.89,5.26-3.93,10.47-5.93,15.69a6.49,6.49,0,0,1-.56.88c-4.18-2.51-8.4-4.92-12.48-7.54s-4.86-5.57-9-8.44C212.34,709.05,203.88,734.07,202.78,734.27Z" transform="translate(-7.88 -313.78)"/><path class="cls-11" d="M211.55,708.21a174.45,174.45,0,1,0-16.79-14.39" transform="translate(-7.88 -313.78)"/><path class="cls-7" d="M287.48,483.31c1.57-3.58,10.5-5.39,13.66-5s12.85,3.86,14.4,4.73c.35.19,3,3.84,3,3.84.31,0,4.45,3.84,2.46,5.55-.05,0,0,.15,0,.23a44.6,44.6,0,0,1-5.79,1.37c-1.24,2-7.27,2.41-11.53,2-3.28-.32-11.69-3.33-13.76-5.8C288.89,489,282.9,488.55,287.48,483.31Z" transform="translate(-7.88 -313.78)"/><path class="cls-7" d="M223.88,459.88c16.69,1.48,18.08,13.47,19.72,18.3.11.19-2.72,3-11.4,2.34-9-.82-12.58-3.24-14.83-6.12-5.09-4.69-6.06-10.9-5.71-11.75C210.34,462.65,222.07,459.54,223.88,459.88Z" transform="translate(-7.88 -313.78)"/><path class="cls-7" d="M321,493.27c0-.07,0-.19,0-.22,2-1.71,1.59-3.59.4-5.53,2.26.57,3.14,2.44,1.82,4.17A9.33,9.33,0,0,1,321,493.27Z" transform="translate(-7.88 -313.78)"/><path class="cls-7" d="M318,487.46c-.46-1.1-.91-2.2-1.37-3.29l2.78.17c.06.59.13,1.18.2,1.77,0,.11-.1.22-.14.33l-.9,1.06,0,0Z" transform="translate(-7.88 -313.78)"/><path class="cls-7" d="M215.81,466.81c-.05,1.18-.11,2.36-.17,3.54A2.68,2.68,0,0,1,215.81,466.81Z" transform="translate(-7.88 -313.78)"/><path class="cls-7" d="M232.2,463l-2.9-.3C230.31,462.32,231.32,462,232.2,463Z" transform="translate(-7.88 -313.78)"/><path class="cls-7" d="M218.29,462.22c-.19.41-.37.83-.55,1.24l-.46.51-.82,0C216.67,463,217.14,462.26,218.29,462.22Z" transform="translate(-7.88 -313.78)"/><path class="cls-7" d="M216.46,464l.82,0c-.35.86-.16,2-1.36,2.39Z" transform="translate(-7.88 -313.78)"/><path class="cls-7" d="M233.59,480.19l2-.83C235.2,480.32,234.59,480.72,233.59,480.19Z" transform="translate(-7.88 -313.78)"/><path class="cls-7" d="M319.59,486.11c-.07-.59-.14-1.18-.2-1.77l1,.57Z" transform="translate(-7.88 -313.78)"/><path class="cls-7" d="M318.55,487.5l.9-1.06c0,.34,0,.69.05,1Z" transform="translate(-7.88 -313.78)"/><path class="cls-7" d="M242.63,471.25l-.34-.6Z" transform="translate(-7.88 -313.78)"/><path class="cls-7" d="M242.28,475l.35-.6Z" transform="translate(-7.88 -313.78)"/><path class="cls-7" d="M320.45,493.65l.54-.39Z" transform="translate(-7.88 -313.78)"/><path class="cls-7" d="M318,487.46l.59,0-.13.37Z" transform="translate(-7.88 -313.78)"/><path class="cls-12" d="M223.88,459.88s-4.56,1-.88,8.71,9.2,6.41,9.2,6.41,8.29-.3,7.4-6.9C239,463.7,228.53,455.34,223.88,459.88Z" transform="translate(-7.88 -313.78)"/><path class="cls-12" d="M299,479.36s-.89,9.59,4.16,10.89c12.46,3.2,11.59-7.86,11.59-7.86L304.86,479Z" transform="translate(-7.88 -313.78)"/><path class="cls-13" d="M307.61,479.38c4.21-1.32,7,9.57-1.6,7.19C304.1,486.17,301.26,479.63,307.61,479.38Z" transform="translate(-7.88 -313.78)"/><path class="cls-14" d="M229.88,470.45c-5.48-2.33-2.41-5.1-2.86-5.8a5.65,5.65,0,0,1,8.14.54c1.83,2.54.39,3.68-2.38,5.23Z" transform="translate(-7.88 -313.78)"/><circle class="cls-7" cx="220.24" cy="151.75" r="1.56"/><path class="cls-15" d="M449.65,429.08c-.21,1.55-2.4,6.23-2.73,7.75-.61,2.86-7.44,12.92-8.69,14.38-2,2.36-4.26,4.54-6.43,6.76-.61.62-1.31,1.14-2.27,2l2,.19c3.66.29,7.36.33,11,.95,3.83.67,5.35,3.19,4.77,6.9-3.83-3.45-8-2.78-12.13-.83-5,2.34-19.07,9.54-21.15,10.73-1.09.62-5.31,2.71-4.44,3.78s16.76,5.56,23.93,2.48c3.87-1.67,6.39-2.22,9.56-7-1,12.33-8.52,20-9.67,20.88a37.05,37.05,0,0,1-12.76,6.93,24.29,24.29,0,0,1-3.48.43c.33.41.53.7.78.95,13.8,12.34.4,30.61-2,35.54-16.62,24.92-36,28.3-41.27,30.68-1,.44-1.93,1-3.08,1.6,0-.75-9.72-9.17-8.77-10.11.11-.11-13.88-11.65-14.81-12.2a2.41,2.41,0,0,1-1.24-2.42,8.52,8.52,0,0,1,.33-1.64c.83-3,6.1-14.39,7.13-15.2s24.47,1.11,37.05-43.14c0-1.09-24-2.77-30-3.54a32.51,32.51,0,0,1-8.21-2.48c-3.15-1.32-6.14-3-9.2-4.58a2.52,2.52,0,0,1-.62-.36c-2-2.1-2.8-3.89-5.58-4.5-3.3-.73-7.59-4-9.78-6.47-5.63-6.44-9.47-11.77-11.38-20.14a75,75,0,0,1-1.72-15.94,111.53,111.53,0,0,0-1.13-17.22,29.33,29.33,0,0,0-5.1-12.54c-.57-.8-1.27-1.52-2.12-2.54-1.72,8.54-7.22,13.81-13.46,18.45-7.75,5.76-16.36,9.28-26.18,9.31a17.25,17.25,0,0,1-7.44-1.71c2.23-.43,4-.67,5.61-1.09,3.17-.79,13-4.64,14.75-5.74.94-.59,1.82-1.3,2.75-1.92a53,53,0,0,0,13.93-13.72c1.38-2,1.48-2.31,1.72-4.15-7.52,7-16.59,11.4-25.73,15.61a28.59,28.59,0,0,1-9.32,2.88c-2.28.21-21.32,1.29-23.26-.46-1.57,1.74-3,3.31-4.42,4.95-.4.47-8.76,11.91-13.18,14.3a6.2,6.2,0,0,0-2,2,82.48,82.48,0,0,1-9.53,11.71c-2.5,2.57-5.13,5-7.62,7.58-1.77,1.83-12.23,13.2-15.42,16-.45.38.33,7.56.51,10.39.22,3.33,3.83,12.25,4.75,13.54.81,1.14,3.43,24.5,3.76,26,.91,4.06,2.76,20.3,12.27,38.59-1.2.53-3.37-5.4-4.33-5.82-4.44-1.94-6.53-1-9.92-4.46a45.2,45.2,0,0,1-5-6.45c-.78.13-2.39,1.21-3.22,1.4-8.26-1.88-16.59-18.53-16.9-19.47-3.13-9.43-2.95-13-2.41-22.89.21-4,1.86-14.88,1.48-15.94-1.47-4.16-1.12-8.95.15-13.2.72-2.44,5.92-10.43,7.77-11.56-1.14-.42-11.12,1.17-15.72.86,1.2-1.79,10.45-12.77,11.34-14.7,7.75-26.81-9.64-32.51,6.19-66.37,4.94-10.83,11.6-17.15,15-20.75,18.07-15,26.13-18.61,36.35-24.52,1.1-.49,31.56-18.62,37.42-19.42,2.2-.3,33.16-11.27,50,2.36,1.05.55,4.95,2.25,3,8.29,3.33-.82,20.36-5.62,26.08-3.81,3.72,1.18,17.33,5.29,20.07,6.87,14.77,7.91,22.3,21,23.85,23.33,1.2,1.79,2.66,3.81,3.7,5.69,3.05,5.54,8.17,40.34,8.33,43.52.14,3,.37,6,.56,9.07a61.65,61.65,0,0,0,6.06,22.28c5.07,7.13,16.27,7.42,21.87,5.81,2.61-.75,12.85-6.89,14.95-8.95C446.32,432.53,449,429.25,449.65,429.08ZM273.75,389l-1.89.74c-2.29,1.26-4.79,2.25-6.06,4.86l6-4.22,2-1.38.57-.25c-.06,0-.16-.14-.17-.13S273.88,388.83,273.75,389Zm40.23,7.8c6,22,4.88,32.29,5,38.29,1,17.27,6.51,23.84,12,30.3a45.44,45.44,0,0,0,4.21,3.86l.05,0h-.1a18.21,18.21,0,0,0-.81-2.17c-2.48-4.77-10.56-55.36-11.28-59.75C319.51,402,313.56,395.79,314,396.76Z" transform="translate(-7.88 -313.78)"/><path class="cls-16" d="M412.54,592l3.49.64C414.48,593.62,413.45,593.34,412.54,592Z" transform="translate(-7.88 -313.78)"/><path class="cls-15" d="M447.21,432.2l.75-1Z" transform="translate(-7.88 -313.78)"/><path class="cls-17" d="M271.46,390.34l-6,4.22c1.27-2.61,3.77-3.6,6.06-4.85C271.51,389.92,271.49,390.13,271.46,390.34Z" transform="translate(-7.88 -313.78)"/><path class="cls-18" d="M436.07,447.43l-2.48,3.19-2.65-.91,5.16-2.23Z" transform="translate(-7.88 -313.78)"/><path class="cls-19" d="M402.11,548.32c-.14-.39-.48-.85-.36-1.15a17,17,0,0,1,1.19-2.22C403.73,546.82,403.65,547.14,402.11,548.32Z" transform="translate(-7.88 -313.78)"/><path class="cls-20" d="M410.16,510l1.08,2c-1.29-.09-1.7-.72-1.61-1.7Z" transform="translate(-7.88 -313.78)"/><path class="cls-21" d="M260,415.86" transform="translate(-7.88 -313.78)"/><path class="cls-22" d="M271.46,390.34c0-.21.05-.42.08-.63l1.89-.75h0Z" transform="translate(-7.88 -313.78)"/><path class="cls-22" d="M273.43,389a5,5,0,0,1,.41-.38l.16.13-.57.25Z" transform="translate(-7.88 -313.78)"/><path class="cls-18" d="M436.1,447.48a3.29,3.29,0,0,1,.33-.23s.09.05.14.08l-.5.1Z" transform="translate(-7.88 -313.78)"/><path d="M349.53,549.72c3.5.4,5.93,2.7,8.19,5.21,4.82,5.35,9.67,10.67,14.4,16.1.82.94,1.11,2.36,1.74,3.77,3.26,2.25,58.42,22.32,62.33,24q8.51,3.57,17.13,6.86a3.37,3.37,0,0,1,2.55,2.78,4.73,4.73,0,0,0,.76,2c4.21,5.67,15,30.71,15.36,32.43.29,1.47.63,3-.52,4.48-.22-.3-.48-.5-.55-.76-1.62-6.35-5-11.91-7.93-17.67-2.2-4.31-9.32-15.75-10.86-17.25-.94-.92-4-.07-5.25-.11-4.8-.12-21.39,5.92-29.47,18.39-2.76,6.38-20,20.84-26.4,93.2,0,.55,0,1.1,0,1.77l-4.86,2.18c-.92-20.76,9-61.66,13.42-72.4,2.21-5.39,10.18-30.42,30.78-42,3.94-2.54,8.05-4.66,12.91-4.58a24.93,24.93,0,0,0,4.43.05,6.56,6.56,0,0,0-1.43-1.32c-1.58-.75-29.37-12-33.54-13.13-12.1-4.61-25.62-9.5-38.12-13.75a4.38,4.38,0,0,0-5.81,2.93c-1.81,8-3.52,16.09-5.65,24-6.42,24-12.4,48.14-17.76,72.42-2.48,11.25-7,21.77-12.38,31.88-3.1,5.82-8.8,24.33-9.21,27.49-.43,3.33-1.39,11.26-1.65,11.83a1.85,1.85,0,0,1-1.91,1.18c-1,0-1.09-.78-1.25-1.49-.78-3.43-4.75-16.88-5.95-20.18-.25-.67-2.66-6.43-4.68-8.06-7-5.65-21.81-22.9-23.47-24.62a6.51,6.51,0,0,0-9.18,0c-.17.17-26,27.23-28.28,29.46l-4.15-1.88c.38-.53,36.87-40.36,37-41.59.11-.79,3.39-4.84,4.55-6.27-.37-.13-21.6-.56-31.37-4.8-12-4.57-22.19-21.69-23.75-23.67.3,15,5.16,27.44,10.41,39.7.88,2.06,3.72,9.95,3.28,12-1.13,5.11-7,18.55-8,20.74l-5.63-3.14c.37-.84,6.23-13,8.84-18.42a3.37,3.37,0,0,0,.1-3c-1-2.34-4.4-11.62-6.65-13a18.25,18.25,0,0,1-2.43-2.08c-1.61,2.45-3.21,4.69-4.62,7a214.24,214.24,0,0,0-17.12,35.88c-1.78,4.83-2.68,17-3.09,18.21-9.37-15.31-13.34-53.44-14.33-81.33-.39-6.65,4-71.19,4.52-75.23.47-3.54.4-4.38-3.45-3-6.68,2.4-31.09,10.19-32,10.59a3.57,3.57,0,0,0-1.9,2.27c-1.63,4-2.89,22.82-3.27,28a4.9,4.9,0,0,1-.67,2.32,13.56,13.56,0,0,1-.73-1.6c-.87-2.66-2.36-22.36-1.95-25.77.06-.47.08-.93.14-1.67l-4.85,1.54c-.22-.93-.41-1.75-.64-2.74,1.17-.44,6-2.26,7.21-3.52,1.41-1.45,3.66-2.23,5.67-2.93,4.9-1.71,29.83-10.2,37.19-12.84.21-.3.38-.42.38-.55,0-2.33,1-3.57,3.32-4.24,3.28-1,6.46-2.27,10-3.55-.63-1.13-4.14-7.64-5.52-10a3.39,3.39,0,0,0-1.74-1.46c-7.42-.42-14.09-6.8-16.58-22.92a2.75,2.75,0,0,1,.21-1.39,1.34,1.34,0,0,1,2.45-.21,3.9,3.9,0,0,1,.56,1.56c.77,5.84,3.7,10.69,7.13,15.26a25.58,25.58,0,0,0,6,5.19c-.86-2.73-6-15.34-6.15-15.79-1.32-4.78-5.61-35-5.86-37.57a5.32,5.32,0,0,0-.95-2.35c-2,6.92-2.64,14-3.95,21-1-3-.89-6-.72-9a94.59,94.59,0,0,1,3.35-19.11,5.85,5.85,0,0,0,0-3.49,32.14,32.14,0,0,1-1.26-11.38c0-.77,0-1.54,0-2.69-3.14,1.24-12.79,3.55-16.28,9.74a12.38,12.38,0,0,1-.54,1.36,6.06,6.06,0,0,1-1-5.94,27.89,27.89,0,0,1,2.45-5.43c1.87-3.16,3.94-6.21,5.91-9.31.37-.59.68-1.22,1.26-2.27-1.21,0-2,0-2.83,0-2.37-.22-7.1-.77-7.1-.77s11.4-12.24,10.28-29.38c-5.51-37,11.44-72.09,48.14-86,9.63-3.65,54.35-12.28,74.38,1.95a12.58,12.58,0,0,1,4.26,7.57,3.67,3.67,0,0,1-2.14,4.48c-1.22-6.38-5.95-9.5-11.25-12-23.65-9.12-51.51-3.58-61.18.57-28.05,12.05-54.6,36-49.34,85.88-.6,4.7-.3,15.27-7.59,24.12a8.71,8.71,0,0,0,5.61-.3c4.3-1.85,15.09-24.14,19.27-31,7.8-12.84,18.44-23.06,29.43-33,4.92-4.45,9.92-8.84,15.12-12.95a58,58,0,0,1,28.91-11.91,33.15,33.15,0,0,1,13.32,1.05c4,1.11,7.12,3.26,8.31,7.51a8,8,0,0,1-.3,5.63c-.19.41-.8.63-1.21.94-.27-.44-.7-.86-.76-1.32-.66-5.35-2.77-7.76-7.93-9.11-6.07-1.58-12.08-1-18,.61a55.2,55.2,0,0,0-19.49,9.5c-12,9.29-33,25.93-40.6,39-8.37,14.33-28.48,47.4-30.5,50-.15.25-.27.52-.65,1.28,1-.55,9.17-3.82,9.76-4.2,7.59-4.81,14.74-10.14,20.34-17.3,2.81-3.59,43.13-48.63,51.56-54.91,4.87-3.63,19.65-15,28.15-14.42a12.91,12.91,0,0,1,3.27.65c1,.34,1.9.93,1.52,2.42-1.11-.11-2.19-.26-3.27-.3-3.29-.14-11.19,3.65-12.16,4.35-10.28,7.38-29.79,24.86-30.37,25.48.74,0,21.12,2.89,50.08-14,2.39-1.4,4.6-5.94,5-8.4a12,12,0,0,1-2.34-.2,1.76,1.76,0,0,1-1.1-1.06,1.69,1.69,0,0,1,.79-1.28A8.35,8.35,0,0,1,300.7,390a28.7,28.7,0,0,1,15.42,5.89,21.8,21.8,0,0,1,6.63,9.14c2.79,6.44,4.15,13.28,5.26,20.14.93,5.75,1.53,11.57,2,17.39a53.19,53.19,0,0,0,6.84,23c5.36,9.24,13,15.7,23.53,18.38,30.13,9,52.47-11.47,59.33-16.61a5.37,5.37,0,0,1,2.28-1.14c-.45.76-.85,1.55-1.36,2.27A49.57,49.57,0,0,1,409.81,479a58.72,58.72,0,0,1-17.29,9.67,4.59,4.59,0,0,0-.76.46c.53,3.17-3.65,18.72-6.26,22.92a101.24,101.24,0,0,1-7.13,10.8,48.44,48.44,0,0,1-15.93,12.46c-2.27,1.17-6.46,1.11-8.95,1.09C350.81,541.62,348.32,546.46,349.53,549.72ZM245.69,458.41a13.9,13.9,0,0,1-2.41-.59c-2.83-1.27-13.5-6.14-16.12-6.51-4.52-.62-12-3-20.31,4.61-3,3.28-6.36,6.28-9.59,9.36a3.14,3.14,0,0,0-1.15,2.24c-.42,7.83-.9,15.65-1.34,23.47a13.72,13.72,0,0,0,.09,1.92c.24,3.11.47,6.22.75,9.32.66,7.64,1,15.28,2.4,22.88A131.43,131.43,0,0,0,215.58,571c1.76,2.87,9.53,16,12,18.57,2.16,2.22,16.09,9.2,20.38,9.92.93.16,10.35-.43,11-.43a55.79,55.79,0,0,0,18.29-3.42c.56-.19,1.15-.32,1.84-.51a2.38,2.38,0,0,1-1.32,2.52,18.17,18.17,0,0,1-3.18,1.66c-2.47.91-18.2,4.84-23.74,4.1-.61-.08-1.24-.07-2-.11a7.61,7.61,0,0,0,.19,1c1.54,4,2.79,16.41,10.22,28,.33.59.65,1.19,1,1.9-2.31-.33-2.31-.36-3.79-2-4.92-5.27-11.43-23.66-12.51-26.13a11.74,11.74,0,0,0-3.21-4.63,59.86,59.86,0,0,0-7.36-4.23c-.3.3-.47.4-.51.53a12.81,12.81,0,0,0-.39,1.38c-1.8,7.33-2.41,14.81-3,22.31a14.14,14.14,0,0,0,.88,6.8c.47,1.1,1,2.18,1.48,3.27,16.1,27.13,33.39,35.49,63.2,29.51a9,9,0,0,0,5.69-4.4c2.77-5.22,6-10.22,8.64-15.49,6.85-13.55,13.4-27.26,20.25-40.81a227.77,227.77,0,0,0,16.1-42.76,4.46,4.46,0,0,0,.18-2.3,40.78,40.78,0,0,0-1.72-4.06c-3.95,4.11-7.67,8.06-11.49,11.92a86.72,86.72,0,0,1-14.7,11.9c-.52.33-1.09.58-1.63.87a3,3,0,0,1,1-1.51c21.54-22.18,28.2-31.25,47.42-83.9-.75-.07-11.18-1.61-15.33-4-6.87-4-13.05-8.81-16.85-16.09-10.93-20.05-4.32-41-13.09-63.28-4.78-12.14-14.37-12.61-18.23-13.4a28.64,28.64,0,0,1,0,4.16,11,11,0,0,1-3.85,6.47c-2.46,2.23-13.77,12.26-57.86,16.43-.51,0-5.12,3.68-6.65,5.48-4.79,5.68-9.47,11.47-14.16,17.23a12.34,12.34,0,0,0-1.07,2.09C230,444.11,238.87,448.93,245.69,458.41Zm74.08,278.46c.28-1.27,6.29-21.74,8.55-27.38,1.5-3.76,7.31-8.71,12.79-33.62,3.07-13.48,6-27,9.43-40.38,4.73-18.56,14.78-59.66,15.44-61.52a3.61,3.61,0,0,0-.8-3.93c-2-2.31-10.57-12.23-14-13.69a10.25,10.25,0,0,0-.91,2.37c-.32,2.43-6.87,22.77-9.44,29.07-7.14,17.47-15.54,34.36-24,51.22-9.46,18.88-20.35,36.79-35.28,52a9.24,9.24,0,0,0-.78,1.3c3.34-1.45,5.55-.2,7.54,1.78.85.84,18.19,19.74,23.24,23.48a8.45,8.45,0,0,1,2.66,3.3C315.38,723.61,318.82,734.06,319.77,736.87ZM200.13,576.28a27.19,27.19,0,0,0-.38,3.12c-.11,6.42-5.77,74.07-5.71,78,0,32.6,7.75,68.8,8.08,70.72,1.7-12.47,18-40.43,22.46-47.83,1.43-2.41,3.16-4.51,6.69-3.15-.9-3.17-1.75-6-2.5-8.85-3.94-14.87-4.31-30-3.2-45.25a197.72,197.72,0,0,1,3-22.09c.33-1.75.82-3.48,1.32-5.58-.92-.6-2.13-1.51-3.45-2.21a13.22,13.22,0,0,1-5.11-4.59c-.91-1.41-1.83-2.82-2.64-4.29-1.78-3.22-3.5-6.47-5.24-9.71a3.64,3.64,0,0,0-3.92-1.69ZM354.56,531.2c2.11,0,4.11,0,5.92-.89a43.66,43.66,0,0,0,13.24-10.12,50.48,50.48,0,0,0,8.44-14.12,62.14,62.14,0,0,0,4.42-12.64c.21-1.05.32-2.12.53-3.52l-2.49.53c-1.71,7.63-4.64,14.25-9.83,19.8a51.28,51.28,0,0,1,1.79-6.65c.92-2.8,2-5.56,2.84-8.38.43-1.42.59-2.93.89-4.47H370.23c-.35,1.11-.67,2-.91,2.92-.43,1.7-.78,3.42-1.23,5.12a6.57,6.57,0,0,0,.74,5.29,24.68,24.68,0,0,1,1.83,3.63,10,10,0,0,1-1.24,9.36,3.89,3.89,0,0,1-5.58,1.46c.8-1.63,1.63-3.26,2.39-4.92a7.35,7.35,0,0,0-.14-6.89C362.21,514.94,358.43,523,354.56,531.2ZM293.39,666.35c-.62-.14-.79-.23-.92-.19-40.8,5.23-61.2-24.91-62.91-34.46a36.87,36.87,0,0,0-.59,6.46,2.57,2.57,0,0,0,.32,1.13c1.26,2.67,2.4,5.41,3.84,8,16.47,34.37,54.42,24.48,56.45,23.36C291.07,669.81,292,668,293.39,666.35ZM190.87,486V471.36a4.2,4.2,0,0,0-1,3C189.55,479.29,189.84,484.71,190.87,486Z" transform="translate(-7.88 -313.78)"/><path d="M447.93,432.88c-5.29,18-30.27,31.63-54,24a29,29,0,0,1-17.08-12.4,75.19,75.19,0,0,1-5.07-9.5,230,230,0,0,1-12.92-36.58A70.3,70.3,0,0,0,351.31,380c-3.57-5.89-10.86-18.58-33.34-16.2a9.44,9.44,0,0,0-6.33,2.56c-.88-1.25,3.36-4.06,4.87-4.46,27.91-3.13,34.19,9.9,37.89,15.2,3.51,5,10.34,25.16,11.67,29.52a204,204,0,0,0,11.51,28.67,47.43,47.43,0,0,0,4.22,7,23.47,23.47,0,0,0,13.14,9.12,52.46,52.46,0,0,0,26.79.79c10.84-2.65,19.62-8.37,25.4-18.18C447.36,433.6,447.66,433.25,447.93,432.88Z" transform="translate(-7.88 -313.78)"/><path d="M319.64,330.64a47.12,47.12,0,0,1,31.05-5.89c27.46,3,47.87,32,49.85,52.83a133.86,133.86,0,0,1,1.17,28.22c-.31,5.34.33,25.24.93,29.83a10.61,10.61,0,0,0,1.27,3.6c1.49,2.71,3.52,4.73,6.95,4.66,2.3-.05,4.6,0,6.8,0-3.42,3.77-10.59,4-14.27.25a11.28,11.28,0,0,1-1.88-2.47c-6.27-10.63-1.25-41.36-4.65-67-3.66-20.82-19.42-44.36-50.54-46.43a58.7,58.7,0,0,0-23.86,3A2.16,2.16,0,0,1,319.64,330.64Z" transform="translate(-7.88 -313.78)"/><path d="M395.57,435.05c-.38-.94-.82-1.86-1.13-2.82a119.84,119.84,0,0,1-5.37-25.76c-1-10.74-2.08-21.46-4.78-32a58.31,58.31,0,0,0-12.07-23.68,36.51,36.51,0,0,0-20-12.37,64.23,64.23,0,0,0-23.81-1.1,52.1,52.1,0,0,0-5.73,1.61,5.56,5.56,0,0,1-1.52,0c.11-.58,0-1.39.36-1.68a7.57,7.57,0,0,1,2.85-1.66,60.74,60.74,0,0,1,8.91-1.75c8.91-.79,17.71-.18,26.2,3,23.94,11.18,28,29.23,30.52,40.06,1.45,6.19,2.12,28.4,2.53,33.16.48,5.57,1.35,11.1,2.15,16.62C395.05,429.42,395.78,435,395.57,435.05Z" transform="translate(-7.88 -313.78)"/><path d="M407.63,540.15c8.4-11.85,9.64-31.14-11.91-36.82-.83-.07-1.66-.35-1.73-1.34s.81-1.52,1.72-1.59a16.09,16.09,0,0,1,3.1.12c7.93,1,17.67,9.52,19.23,17.16A21.68,21.68,0,0,1,416.57,531a63,63,0,0,1-13.25,19.26,29,29,0,0,1-5.23,3.76,5,5,0,0,1-4.12.72c.36-.53.61-1,.92-1.36a49.33,49.33,0,0,0,4.41-5.67c1.08-1.9,13.29-20.08-9.09-36.5a2.65,2.65,0,0,1-.49-1.91,2.21,2.21,0,0,1,1.61-1.07C413,520.35,407,545.51,407.63,540.15Z" transform="translate(-7.88 -313.78)"/><path d="M316.07,331.51c0-.67,0-1.21.09-1.75a7.44,7.44,0,0,0-4.24-8.13,23,23,0,0,0-6.78-2.21c-11.92-1.93-23.74-1.48-35.22,2.58-6.88,2.43-37.72,18.29-40.24,19.29a16.63,16.63,0,0,1-5.15,1.58c.64-.75.9-1.25,1.32-1.5,4-2.45,32.13-18.66,35.11-20,16.84-7.66,35.61-6.85,41.36-6.81,6.64-.05,25.8,6.09,14.77,16.81C316.9,331.56,316.51,331.46,316.07,331.51Z" transform="translate(-7.88 -313.78)"/><path d="M186.47,544.32a21.67,21.67,0,0,1-2.9-.76c-9.94-6.06-26-33.7-6.06-62.16a2.23,2.23,0,0,1,.7-.64c.41-.15,1-.34,1.29-.17a1.42,1.42,0,0,1,.61,1.16,4.9,4.9,0,0,1-.83,2.19c-12.17,20.54-4.09,47.47,6.44,58.51a12,12,0,0,1,1,1.48Z" transform="translate(-7.88 -313.78)"/><path d="M443.61,478.71c1.86,13.29-19,27.32-30.87,21.67h0c15.4-.82,23-9.45,26.5-13.18-1.21.3-13.18,7.22-26.44,2.27h0a7.52,7.52,0,0,1-2.34-2c-.62-.73-1.11-1.71-.23-2.59s1.6-.18,2.29.37c1.81,1.41,17.93,7.17,31.09-6.55Z" transform="translate(-7.88 -313.78)"/><path d="M372.17,566.69c.64-.67,1.25-1.36,1.92-2,2.83-2.7,30-25.63,10.06-46.89a4.83,4.83,0,0,1-.51-1.23c.48-.18,1.1-.64,1.42-.49a15.48,15.48,0,0,1,3.84,2.32,24.93,24.93,0,0,1,6.87,12.93c3.36,14.43-8.87,28.81-14,32.83a14.91,14.91,0,0,1-7.1,3.25,15.47,15.47,0,0,1-2.26,0Z" transform="translate(-7.88 -313.78)"/><path d="M308.48,473.34c-2.07,1-7.94.62-10.56,3,10-1.78,18.69.64,24.24,8.46.77.91,6.72,3.31,8.49,4l0,.57L327.26,491l2.26,2.62c-.69.69-1.4.26-2,0-1.27-.47-3.68-1.72-6-.4-2.53,2-11,3.73-13.27,3.33.5-.61.74-1.19,1-1.21,3-.22,8.8-2,11.43-4.5-3.3-8.1-12.32-12.1-20.77-10.27-1.25,3.06.49,5.5,2.44,7.23,2.23,2,5.7,2.06,9.54,1.61-1.95,2.75-4.14,2.89-7.11,2.36-5.89-.4-8.51-6.19-8.26-10.55a14.88,14.88,0,0,0-9.73,4.65c2.3,4.33,9.08,5.9,9.9,6.93-2.76,1-8.41-1.72-11.62-5.58l-3.3,3.55c2.63-9.11,9.08-11.51,11.25-13.31-3.1.94-5.78,2.72-8.62,4.2,2.64-4.3,7-6.09,11.35-7.74C299.86,472.43,306.6,472.47,308.48,473.34Z" transform="translate(-7.88 -313.78)"/><path d="M244.1,465.79l-1.9-.68c-.14.19-.32.32-.31.42a5.6,5.6,0,0,0,.47,2,15.56,15.56,0,0,1,2.21,11c-.11.85-.1,1.78-1.44,2.27-1.4-5.81-4.26-17.93-18.45-18.27-.06,2.34-2.72,10,7.21,11.16,1.25-.07,1.26,0,2,1-3.29.74-3.17,1-8-.05-2.7-2.09-4.84-4.18-5.27-7.56a15.58,15.58,0,0,1,.38-3.69c-2.12-.16-3.79.25-7.24,1.77l1,5-.56.27c-2.47-1.12-3.49-3.57-4.91-6l-4.73,1.06c.62-1.89,1.92-2.64,3.32-3.49l-1-1.33c.28-.15.47-.33.67-.34,3.58-.29,7.25-.42,10.56-1.84a15.22,15.22,0,0,1,7.22-1c4.64.3,8.53,2.46,12.29,4.92a11.22,11.22,0,0,0,1.92,1.15c-.39-1.45-8.46-5.5-11.36-6.84-.58-.27-1.15-.58-1.72-.88l.18-.63a6.54,6.54,0,0,1,1.67.13,51.43,51.43,0,0,1,12.29,5.87A8.1,8.1,0,0,1,244.1,465.79Z" transform="translate(-7.88 -313.78)"/><path d="M286.84,467.93a15.46,15.46,0,0,1,6.23-3.28c3-.91,9.82-4.53,23.12-1.08,2.14.49,11.08,5.75,13.4,7.56a13.27,13.27,0,0,1,3.25,3.94,10.68,10.68,0,0,1-1.71-.25c-3.58-1.11-7.13-2.32-10.73-3.35-1.9-.55-14.9-1.67-19.44-1.78a55.19,55.19,0,0,0-9.54.24C289.3,470.24,288.11,469.55,286.84,467.93Z" transform="translate(-7.88 -313.78)"/><path d="M251.49,553.69c1.42,1.35,2.72,2.72,4.17,3.92,6.55,4.83,17.54,6.36,20.12,6.88-.74-2.21,0-3.36,1.93-4.1,1.5,2.58,2.21,5.64,5.46,7.29-.9.3-7.33.32-10.32-.07-8.37-.49-15.71-4.62-18.2-5.68a6.34,6.34,0,0,1-2.72-1.89c-1.14-1.63-5.17-1.22-5.64-1.11-4.37,1-7.66-.16-10.13-3.87a3.51,3.51,0,0,0-3.81-1.75c-2,.28-3.94.43-5.92.64-.15,0-5.55-3.46-5.77-4.52a1.7,1.7,0,0,1,.9-2,1.53,1.53,0,0,1,1.94.44c2.57,4.1,10.32,2.61,12.21,2.56.42,0,.92.75,1.25,1.14,3.91,4.65,8.82,4.77,11.77,3.49C249.53,554.69,250.3,554.27,251.49,553.69Z" transform="translate(-7.88 -313.78)"/><path d="M267.26,536.4a5.64,5.64,0,0,1-5.83,2.74c-2.74-.45-6.05-1.1-12.42,1.25s-10.93-.57-16.2-10c-1-1-2.64-1.51-3-2.84-.58-2.31.63-4,3.27-4.5-.88,2.52.08,4.24,1.79,5.9a11.9,11.9,0,0,1,2.31,3.79c1.32,3.06,3.87,4,6.62,4.7,2.93.73,7.05-2.72,16-1.9,3.25.13,5.59,1.09,7.41-6.92A7.25,7.25,0,0,1,267.26,536.4Z" transform="translate(-7.88 -313.78)"/><path d="M248,507.49c.54-2.56,1.12-5.12,1.64-7.69.88-4.38,1.91-8.74,2.53-13.16a38.79,38.79,0,0,0-1.08-16.86,7,7,0,0,1,2.59,2.44c.21.34.33.73.52,1.08a14.18,14.18,0,0,1,1.36,12c-2.27,7.06-4.45,14.15-6.68,21.22a8.66,8.66,0,0,1-.52,1.06Z" transform="translate(-7.88 -313.78)"/><path d="M231.27,564a3.11,3.11,0,0,1,3.35.22c1.66.94,3.88,4.22,10.51,2.68a11.82,11.82,0,0,1,2.38,0c1,.14,2,.49,2.19,1.58s-6,3.37-8.27,3.7C235.71,570.38,231.65,565.88,231.27,564Z" transform="translate(-7.88 -313.78)"/><path d="M240.94,480.55c-4,1.34-7.76,2.18-11.73.69a2.19,2.19,0,0,1-.85-.42c-.32-.4-.78-.94-.72-1.34s.67-.84,1.13-1a3.08,3.08,0,0,1,1.65-.05C233.36,479.11,240.3,479.73,240.94,480.55Z" transform="translate(-7.88 -313.78)"/><path d="M321.8,482.39a18.8,18.8,0,0,1-2.83-2.65c-1.52-2.11-4.43-2.77-5.91-5.78,1.29.27,2.22.22,2.83.64A14.18,14.18,0,0,1,321.8,482.39Z" transform="translate(-7.88 -313.78)"/><path d="M223.88,454.75c-.58.42-.83.72-1.15.81-3.33,1-6.67,1.9-10.29,2.93.95-1.65,2.27-2.53,5.17-3.4C219.53,454.51,221.49,453.92,223.88,454.75Z" transform="translate(-7.88 -313.78)"/><path d="M238.87,487.56c-1.36,1.65-5.31,3.5-8.25,3.86C233.08,489.65,236.08,488.81,238.87,487.56Z" transform="translate(-7.88 -313.78)"/><path d="M281.63,500.73c-1.95-.78-7.41-5.3-8.76-7.1C274.57,494.19,279.5,498.11,281.63,500.73Z" transform="translate(-7.88 -313.78)"/><path class="cls-23" d="M151.26,425c-.24-2.28-.38-4.58-.73-6.84-.6-3.79-1.17-7.59-2.05-11.31-1.82-7.68-6.7-12.42-14.34-14.42A98.42,98.42,0,0,0,119,390a16.78,16.78,0,0,1-3-.48c1.68-.16,3.37-.32,5-.5a76,76,0,0,0,14.5-2.65,18,18,0,0,0,12.61-12.62,76.76,76.76,0,0,0,2.64-14.5c.18-1.67.33-3.35.68-5,.17,1.66.27,3.33.51,5,.58,3.93,1.1,7.87,1.87,11.76,1.79,9,7.26,14.49,16.27,16.18,5.19,1,10.47,1.54,15.71,2.28a1.94,1.94,0,0,1,.94.29c-1.7.17-3.41.31-5.11.5a73.16,73.16,0,0,0-14.88,2.8,17.84,17.84,0,0,0-12,12A73.12,73.12,0,0,0,151.94,420c-.19,1.68-.34,3.37-.5,5.06Z" transform="translate(-7.88 -313.78)"/><path class="cls-24" d="M100.6,380.49c-.08-.79-.13-1.59-.25-2.37-.21-1.31-.41-2.63-.71-3.92a6.39,6.39,0,0,0-5-5,33.19,33.19,0,0,0-5.25-.84,6.74,6.74,0,0,1-1-.17l1.76-.17a26.09,26.09,0,0,0,5-.92,6.26,6.26,0,0,0,4.36-4.37,26.73,26.73,0,0,0,.92-5,17.27,17.27,0,0,1,.23-1.74c.06.57.09,1.15.18,1.72.2,1.36.38,2.73.65,4.07a6.59,6.59,0,0,0,5.63,5.61c1.8.34,3.63.53,5.44.79a.6.6,0,0,1,.33.1l-1.77.17a25.25,25.25,0,0,0-5.16,1,6.19,6.19,0,0,0-4.16,4.17,25.14,25.14,0,0,0-1,5.15c-.07.59-.12,1.17-.17,1.75Z" transform="translate(-7.88 -313.78)"/><path class="cls-24" d="M113.51,451.47c-.13-1.33-.21-2.67-.42-4-.35-2.2-.68-4.42-1.2-6.59a10.76,10.76,0,0,0-8.35-8.4,57.3,57.3,0,0,0-8.84-1.41,9.91,9.91,0,0,1-1.76-.28l2.94-.29a44,44,0,0,0,8.45-1.55,10.52,10.52,0,0,0,7.35-7.35,45,45,0,0,0,1.54-8.45,26.77,26.77,0,0,1,.4-2.93c.09,1,.15,1.94.29,2.9.34,2.29.64,4.58,1.09,6.85,1,5.24,4.23,8.44,9.48,9.43,3,.57,6.1.89,9.15,1.33a1,1,0,0,1,.55.17c-1,.09-2,.18-3,.29a42,42,0,0,0-8.67,1.63,10.42,10.42,0,0,0-7,7,42.72,42.72,0,0,0-1.62,8.68c-.11,1-.19,2-.29,2.94Z" transform="translate(-7.88 -313.78)"/><path class="cls-25" d="M85.9,489c-.08-.8-.13-1.62-.26-2.41-.21-1.34-.41-2.68-.72-4a6.52,6.52,0,0,0-5.07-5.09,34.66,34.66,0,0,0-5.35-.86,5.67,5.67,0,0,1-1.07-.17c.59-.06,1.19-.11,1.78-.18a26.21,26.21,0,0,0,5.12-.93,6.41,6.41,0,0,0,4.46-4.46,27.79,27.79,0,0,0,.93-5.12c.06-.59.12-1.18.24-1.78.06.59.09,1.18.18,1.76.2,1.39.39,2.78.66,4.15a6.72,6.72,0,0,0,5.75,5.72c1.83.35,3.7.54,5.55.8a.72.72,0,0,1,.33.11l-1.8.17a26.11,26.11,0,0,0-5.26,1,6.31,6.31,0,0,0-4.25,4.25,25.54,25.54,0,0,0-1,5.26c-.07.6-.12,1.19-.18,1.79Z" transform="translate(-7.88 -313.78)"/><circle class="cls-7" cx="296.33" cy="168.33" r="1.56"/></svg>