<svg id="char" xmlns="http://www.w3.org/2000/svg" viewBox="0 0 538.71 475.98"><defs><style>.cls-1{opacity:0.5;}.cls-2{fill:#201600;}.cls-3,.cls-4{font-size:79.88px;font-family:Consolas;}.cls-24,.cls-3{fill:#dca45c;}.cls-25,.cls-4{fill:#ab7849;}.cls-11,.cls-5{fill:none;}.cls-5{stroke:#e9a854;}.cls-11,.cls-5,.cls-6{stroke-miterlimit:10;stroke-width:4px;}.cls-6{fill:#e9a854;}.cls-11,.cls-6{stroke:#201600;}.cls-7{fill:#fff;}.cls-8{fill:#f8e2d2;}.cls-9{fill:#3c3735;}.cls-10{fill:#3c3736;}.cls-12{fill:#e3b373;}.cls-13{fill:#0d0d0e;}.cls-14{fill:#0b0b0d;}.cls-15{fill:#352d2f;}.cls-16{fill:#8c8182;}.cls-17{fill:#b2aeb2;}.cls-18{fill:#d2d1d4;}.cls-19{fill:#625759;}.cls-20{fill:#b5b0b2;}.cls-21{fill:#bbb7ba;}.cls-22{fill:#7a7174;}.cls-23{fill:#e9bb7e;}</style></defs><title>Untitled-1</title><g class="cls-1"><path class="cls-2" d="M365.74,282.84c1.84,3.92,5.25,5.23,9.26,5.8a17.15,17.15,0,0,0,7.1-.13,16.6,16.6,0,0,0,2.51-.78c2.52-1.17,5-2.41,7.51-3.66a11.92,11.92,0,0,0,4.37-4.35c.32-.46.69-.89,1.37-1.77-.41,7.29-3.65,12.7-7.73,17.63-1.27,1.54-3.28,2.49-5,3.65a30.16,30.16,0,0,1-2.73,1.46c2.43,1,4.67,1.89,6.88,2.84s4.33,2,6.52,2.88c7.08,2.95,14.15,5.9,21.27,8.76a3.32,3.32,0,0,1,2.41,2.38c0,.15,0,.35.13.45,1.92,2.08,2.63,4.82,4,7.21,3.59,6.32,7.35,12.54,11,18.8a11.77,11.77,0,0,1,1.77,7.32,17.31,17.31,0,0,0,0,2.88,7.68,7.68,0,0,1-1.08,4.33,185.4,185.4,0,0,1-22.62,33.24,176.64,176.64,0,0,1-37.5,33,174,174,0,0,1-64.71,26c-4.62.84-9.26,1.65-13.91,2.27-2.84.38-5.74.33-8.61.53-1.46.1-2.91-.18-4.33.83-.82.6-2.12.26-3.12-.51-1.58-1.22-3.22-2.37-4.89-3.46a40.57,40.57,0,0,0-3.76-2.1,11.26,11.26,0,0,0-11.43.41c-3.66,2.12-4.21,2.14-7.39-.65-2.09-1.84-3.83-4.05-5.76-6.07-2.48-2.6-4.91-5.25-7.51-7.72a14.78,14.78,0,0,0-9.66-4.18,9.34,9.34,0,0,0-6.8,2.52,21.16,21.16,0,0,0-4.91,7L216.87,443c-.71-.2-1.32-.35-1.91-.56-3.66-1.3-3.72-1.44-4.12-5.38a62.25,62.25,0,0,0-1-6.82,28.69,28.69,0,0,0-1.76-5.2,5.56,5.56,0,0,0-4.88-3.7c-2.66-.19-4.44,1.18-5.69,3.28-1,1.79-1.87,3.71-2.79,5.58-.35.71-.67,1.43-1.13,2.41a23.09,23.09,0,0,1-5.74-3.32c-.53-.45-.6-1.81-.43-2.66,1.42-7.28,3-14.54,4.46-21.8.94-4.53,2-9,2.84-13.57.83-4.37,1.49-8.77,2.22-13.16.45-2.74,1-5.46,1.32-8.21a23.13,23.13,0,0,0,0-5.26c-.22-1.8-1-3.55-2.93-4s-4-.24-5.31,1.76-2.82,4.28-4,6.54a150.59,150.59,0,0,0-8.81,21.51c-2.68,8.11-5.22,16.27-7.84,24.41-.24.75-.53,1.48-.88,2.43-4.16-2.17-6.65-5.9-10.1-8.9,1.25-3.48,2.35-7,3.76-10.34,5.57-13.26,11.24-26.48,16.89-39.71,4.3-10.07,8.7-20.09,12.91-30.2a62.39,62.39,0,0,0,2.79-9.09c.44-1.81.8-3.76-.21-5.57-.43-1.9-1.22-2.7-3-2.8a8.1,8.1,0,0,0-2.12.26c-4.16.89-7.64,3.19-11,5.59a116.43,116.43,0,0,0-18.54,16.89,183.3,183.3,0,0,0-16.69,20.94c-4.08,6.09-7.82,12.42-11.71,18.63-.45.72-.65,1.71-1.82,1.62-3.31-5.65-6.82-11.19-9.87-17a167.08,167.08,0,0,1-15.53-42.39c-.68-3.12-1.24-6.26-1.85-9.39a2.67,2.67,0,0,1,0-.48c.08-.13.15-.34.26-.38,3.93-1.1,6.91-3.9,10.45-5.71,6.82-3.5,13.71-6.87,20.53-10.38,5.75-3,11.7-5.53,17.14-9.09a53.3,53.3,0,0,1,5.73-2.94c1.45-.71,2.25-1.74,1.9-3.44a11.79,11.79,0,0,1-.05-1.2c-.14-1.78-.23-3.55,1.71-4.76-5.49-4-10.76-7.71-13.5-13.91a22.94,22.94,0,0,1-8.42.07,17.5,17.5,0,0,1-10.12-6c-1.23-1.43-12.68-11.61-9.81-28.49a57.87,57.87,0,0,1,4.94-18.88c1.77-4,6.3-13.33,6.83-14.45l-6.57,1.59-.36-.39c.78-1.3,10.87-17,11.83-18.13l-.3-.36c-1,.25-4.24,1.6-5.56,1.93.15-1.31,2.32-3.49,2.62-4.48.84-2.82,1.82-5.59,2.73-8.39.19-.6.42-5.61.54-7.49a25,25,0,0,0-.84-6.82c-.7-3.34-1-6.76-1.58-10.12-.59-3.11-1.53-6.15-2.09-9.26a58.36,58.36,0,0,1-.68-7.12q-.19-3.24-.1-6.48a37.69,37.69,0,0,1,.52-4.22c.28-1.87.48-3.76.93-5.6,2.12-8.61,5.28-16.72,11.4-23.4,1.84-2,3.62-4,5.38-6.12a49.42,49.42,0,0,1,7.65-6.87c4.92-3.81,9.67-7.84,14.64-11.58,3.12-2.35,6.53-4.32,9.77-6.52,1.25-.85,2.36-1.89,3.56-2.8a8.63,8.63,0,0,1,1.65-.93c1.54-.67,47-29.62,55.25-32a10.24,10.24,0,0,1,2.61-.2c5.42-.15,10.85-.21,16.27-.45,5.74-.25,11.47-.64,17.2-1a5.25,5.25,0,0,1,4.63,2,17.65,17.65,0,0,0,2.69,2.33,10.29,10.29,0,0,1,4,10.33c-.19,1.32-.53,2.62-.86,4.2l9.17-3.07c1.94-.42,3.89-.8,5.82-1.26,1-.23,1.93-.62,2.89-.93a40,40,0,0,1,4.46-.56,72.9,72.9,0,0,1,18,1.94,28.93,28.93,0,0,1,13.15,7c3.4,3.14,7,6.13,9.94,9.68,5.85,7.14,12.25,13.91,16.65,22.15a38.66,38.66,0,0,1,4.52,14c.42,3.68,1.11,7.33,1.64,11,.14.95.16,1.91.24,2.86l0,1.44c0,6.47,0,12.93-.08,19.39-.05,4.86-.29,9.73-.31,14.59a33,33,0,0,0,3.94,15.85,27.57,27.57,0,0,0,3.27,4.38,5.83,5.83,0,0,0,4.46,2,49.83,49.83,0,0,0,6.6-.64c3.23-.3,6.09-1.61,9.15-2.28a8.09,8.09,0,0,0,4.15-2.21l4.87-4.92c.83-.27,1.72-.85,2.26.42.11,5.34-2.16,9.72-5.61,13.56-1.8,2-3.64,3.94-5.33,6.07-2.11,2.65-4.83,4.82-7.29,7.2l-.68.76.79.11c2.61,0,5.24,0,7.84.19a24.27,24.27,0,0,1,5.36.93c3.21.95,4.41,2.77,4.4,6.17l-.91.1a5.52,5.52,0,0,0-4.26-1.85,13.52,13.52,0,0,0-8,1.78c-2.19,1.3-4.61,2.21-6.92,3.31-5.7,2.71-11.41,5.41-16.59,9.08-.7.49-1.35,1.07-2.09,1.66,9.22,4.51,22.7,5.92,36.42-7.7a3.54,3.54,0,0,1,1.24,4.72,6.91,6.91,0,0,1-1.33,2,2.59,2.59,0,0,0-.81,2.37A8.55,8.55,0,0,1,407,194a32.74,32.74,0,0,1-7.06,9c-1.6,1.55-3.12,3.2-4.62,4.85a27.64,27.64,0,0,1-10.69,7.1l-2,.81a6.72,6.72,0,0,0,.48,1c3.9,5.33,4.63,11.29,3.31,17.58a27.23,27.23,0,0,1-8.63,15.41,4.15,4.15,0,0,0-1.11,1.52c-1.63,4.33-3.21,8.68-4.78,13a16.49,16.49,0,0,0-1.16,8.46,11.63,11.63,0,0,0,1.66,4.65,6.63,6.63,0,0,0,9.52,1.59,44.56,44.56,0,0,0,3.7-3c.53-.44,1-.9,1.67-1.45.5,1.4-.21,2.27-.78,3.08-2,2.79-4.45,5-7.88,5.92a41.72,41.72,0,0,1-5.15,1.08,8.51,8.51,0,0,1-7.06-2.3L364.84,280A2.59,2.59,0,0,0,365.74,282.84Zm1.62-153.25c.18.67.37,1.34.55,2l.41-.09-.4-1.86-.18-4.85q.33-12,.68-23.92c0-.72,0-1.44,0-2.16.58-7.69-.32-15.28-1.64-22.84A9.53,9.53,0,0,0,365,70.17l1,5.77c.12,1.58.29,3.16.35,4.75a108.93,108.93,0,0,1-.9,19.77,34,34,0,0,0-.53,4.25c-.07,3,0,6.05,0,9.07-.1.13-.26.24-.28.38-.52,3.29.27,6.43,1.14,9.56,0,.11.26.16.39.24l.23.85C366.73,126.4,367.05,128,367.36,129.59ZM274.72,16.45l-.77.15.74.69c1.11,1,2.31,2,3.33,3.06s1.76,2.3,2.78,3.66c.1-.73.11-1.13.21-1.51.72-2.75-.17-4.73-2.79-5.63A16.12,16.12,0,0,0,274.72,16.45Z" transform="translate(0 -4.05)"/><path class="cls-2" d="M192.62,313.94c.15,3.55-1.21,6.73-2.56,9.88-1.46,3.43-3,6.81-4.6,10.18q-4.72,9.94-9.56,19.85c-7.77,16-15.22,32.18-21.36,48.92a8.79,8.79,0,0,1-.64,1.13c-.94-.89-1.85-1.63-2.61-2.49-4-4.62-8.12-9.21-12-13.94-2.54-3.07-4.82-6.36-7.2-9.57a5.22,5.22,0,0,1-.45-1.08c.28-.39.58-.75.83-1.15,2.64-4.37,5.17-8.81,7.92-13.1a183.13,183.13,0,0,1,30.09-36.4,112.16,112.16,0,0,1,11-8.85,49.46,49.46,0,0,1,7.81-4.08A2.5,2.5,0,0,1,192.62,313.94Z" transform="translate(0 -4.05)"/><path class="cls-2" d="M178.62,423.65l-4.38-3c3.69-11.7,7.26-23.35,11.81-34.72a26.66,26.66,0,0,1-.85,7.25c-.57,2.56-1.19,5.1-1.75,7.65s-1,5-1.58,7.45-1.16,5.1-1.71,7.66S179.18,420.87,178.62,423.65Z" transform="translate(0 -4.05)"/><path class="cls-2" d="M225.45,446c1.08-2,1.91-3.77,3-5.4s1.73-1.62,3.43-.71a23.65,23.65,0,0,1,6.26,5.49,40.78,40.78,0,0,1,3.62,4.66A123.46,123.46,0,0,1,225.45,446Z" transform="translate(0 -4.05)"/><path class="cls-2" d="M304.93,22.18c-1,.31-1.91.7-2.89.93-1.93.46-3.88.84-5.82,1.26,1.47-1.71,3.6-1.89,5.57-2.16C302.77,22.08,303.89,21.43,304.93,22.18Z" transform="translate(0 -4.05)"/><path class="cls-2" d="M411.9,138.26c-.54-1.27-1.43-.69-2.26-.42L412,134h.6C412.35,135.38,412.13,136.82,411.9,138.26Z" transform="translate(0 -4.05)"/><path class="cls-2" d="M186.38,384.52l1.28-3.92.55.17c-.39,1.25-.79,2.51-1.19,3.76Z" transform="translate(0 -4.05)"/><path class="cls-2" d="M365.74,282.84a2.59,2.59,0,0,1-.9-2.8l1.52,2.23Z" transform="translate(0 -4.05)"/><path class="cls-2" d="M373.59,91.7l0-1.44A.85.85,0,0,1,373.59,91.7Z" transform="translate(0 -4.05)"/><path class="cls-2" d="M412.58,133.94H412l.44-1.17.37.09Z" transform="translate(0 -4.05)"/><path class="cls-2" d="M410.47,173.35l.91-.1c-.07.27-.14.54-.22.82Z" transform="translate(0 -4.05)"/><path class="cls-2" d="M393.78,166l-.79-.11.68-.76C393.71,165.38,393.74,165.67,393.78,166Z" transform="translate(0 -4.05)"/><path class="cls-2" d="M186.38,384.52H187l-.51.79Z" transform="translate(0 -4.05)"/><path class="cls-2" d="M364.94,113.78c.69,3.36,1.73,6.68,1.26,10.18-.14-.08-.37-.13-.4-.24-.87-3.13-1.66-6.27-1.14-9.56C364.68,114,364.84,113.91,364.94,113.78Z" transform="translate(0 -4.05)"/><path class="cls-2" d="M366.81,75.89l-.82,0-1-5.77A9.53,9.53,0,0,1,366.81,75.89Z" transform="translate(0 -4.05)"/><path class="cls-2" d="M366.42,124.81h1.32l.18,4.85-.56-.07C367.05,128,366.73,126.4,366.42,124.81Z" transform="translate(0 -4.05)"/><path class="cls-2" d="M367.36,129.59l.56.07c.13.62.27,1.24.4,1.86l-.41.09C367.73,130.93,367.54,130.26,367.36,129.59Z" transform="translate(0 -4.05)"/><path class="cls-2" d="M274.72,16.45l0,.84L274,16.6Z" transform="translate(0 -4.05)"/></g><text class="cls-3" transform="translate(0 404.22)">&lt;img&gt;</text><text class="cls-4" transform="translate(275.2 126.45)">&lt;/img&gt;</text><ellipse class="cls-5" cx="266.38" cy="281.16" rx="194.7" ry="192.81"/><circle class="cls-6" cx="303.36" cy="254.2" r="174.28"/><path class="cls-7" d="M173.84,161.62s29-24.54,45.67-48.95c.94-1.34,10-5.6,13.23-3.62.59.35,50-3.88,55.43-26.53C320,84,304.55,125.31,322.24,160.24c11,16,31,17.51,33.53,18.68,1.3.61,17.37-1.27,20-1.1,2.85.18-3,13.53-3.46,15.7-16.55,35.24-30.4,29.69-34.26,29.73-1.17,0-3.11,13-3.43,13.83-.95,2.36-.31,10.93.31,11.75-4.54,25.85-46.17,100-48.76,104.55-1.11,1.95-5.68,2.19-30.33.67-.9-.65-20.88-8.36-24-13.34-.87-1.41-9.77-10.85-10.79-12.17-3.74-4.86-5.92-19.67-5.93-22.93,0-4.23,2.18-21.68,1.66-22.15C178.94,246.62,173.84,161.62,173.84,161.62Z" transform="translate(0 -4.05)"/><path class="cls-7" d="M381.84,360.34c1.93-6.24,3.8-12.52,6.88-18.33,2.62-4.95,13.68-36.5,36.64-40.12,1.88-.75,9.59-1.71,11.62-2s4.34,3.45,6.24,3.4c2.35-.06,14.06,25.95,15.5,28.62-20.32,46.5-64.26,73.74-69.64,76.54-2.62,1.37-10.64,5.45-13.26,6.81C375.28,415.55,380.85,363.53,381.84,360.34Z" transform="translate(0 -4.05)"/><path class="cls-7" d="M139.91,317.76c-2.83-3.12-9.92-22.39-6.83-30.35,1.84-.09,6.76-3.55,7.68-1.68s1.63,11.19.13,16.16C140.52,305.12,140.08,317.77,139.91,317.76Z" transform="translate(0 -4.05)"/><path class="cls-8" d="M345.49,174.9c.23.2,18.36,3.4,30.29,2.92,1,2.63,1.77,7.05.78,9.62-2.84,7.37-2.5,14.37-8.24,19.91-1.59,1.54-12.6,12.36-15,14.11-2.17,1.61-10.27,2.69-12.85,2.2a1.53,1.53,0,0,0-1.71,1c-1.62,3.12-3.26,6.22-4.9,9.33a1.88,1.88,0,0,0,.07,2.24c2.18,2.77,2,6,1.35,9.09a42.83,42.83,0,0,1-4.13,12c.4.46-17.51,48.84-40.44,86.16-2.58,17.39-51.33,17.28-64.76-8.4-3-2.62-3.9-6.9-6.78-9.64a17.28,17.28,0,0,1-3.21-4.15c-2.62-4.74,2.29-35.07,2.39-36.09.36-3.71-7.07-2.68-6.66-6.39.25-2.21,4.22-1.74-.17-13.25-3.37-3.88-11.26-30.64-13.46-37.2-2.41-7.17-11.56-76-11.92-78.39,9-9.35,32.21-32.18,38.49-41.67,10.45.65,50-9.59,50.53-10,2.52-1.84,9.85-6.15,13-15.76,2.35-2.25,24.09,6.77,22.44,22.65C310.77,105.17,314,172.66,345.49,174.9ZM234,298.69a49.66,49.66,0,0,1,1.08,5.78,20.73,20.73,0,0,0,2.65,8.33,18,18,0,0,1,1.72,3.89c.94,3.65,3.58,5.93,6.28,8.18a5,5,0,0,0,1.5.75,3.94,3.94,0,0,0,4.5-1.29c.94-1.31.85-1.86-.53-3.83a2.85,2.85,0,0,1-.65-1.47c0-3.67-1.86-6.7-3.19-9.91a19.52,19.52,0,0,0-2.5-4.85c-2.16-2.66-2.51-5.91-3.41-9-.52-1.78-1.18-2.81-2.86-3a3.37,3.37,0,0,0-3.92,2.33A35.28,35.28,0,0,0,234,298.69Z" transform="translate(0 -4.05)"/><path class="cls-8" d="M441.05,299.89c1.29,1.19,4.17,5.44,5.83,7.25a6.87,6.87,0,0,1,1.17,1.48,101.79,101.79,0,0,1,6.09,12.94c1.24,3.53,2.75,7,4.14,10.44,1.31,3.29-17.39,30.56-20.61,34.08-4.52,5-9.7,11.53-14.65,16s-11.2,10.48-16.49,14.42c-9.31,6.94-29.71,18.49-30.71,18.74.46-2.76-.3-8.36,0-10.78,7.06-55.18,25.9-85.12,28.42-86.93C411.75,306.67,436.19,295.44,441.05,299.89Z" transform="translate(0 -4.05)"/><path class="cls-9" d="M391.48,279.32c3.49,1,37.89,15,41.94,16.79.8.36,3.5,4.58,3.1,4.39-1.42-.68-20,4.17-22.5,6.49-4.09,3.84-26.26,18.87-35.11,83.35q-1.2,11.32-2.35,22.65a2,2,0,0,0,0,.24c-.14,2.72-1.37,4.31-4.07,5.43a179.08,179.08,0,0,1-44.41,12.23,174.22,174.22,0,0,1-94.59-13.42c-.49-.21-1-.48-1.59-.81.6-.78,1-1.43,1.54-2,4.82-5.66,9.72-11.25,14.46-17,44.64-40.21,63.59-94.78,69-105.27,1.4-2.69,18.71-50.21,23.8-48.35,11.33,10.82,16.37,17.2,16.06,21.5C356.74,265.92,386,277.77,391.48,279.32Z" transform="translate(0 -4.05)"/><path class="cls-10" d="M189.9,424.54c-1.1.2-9-41.91-10.59-43.43-20.53-20.14-30-34.82-38.74-62.21-.55-1.75-1.7-22.22-1.43-26a13.27,13.27,0,0,1,9.7-12.32c3.66-1.07,26.08-8.17,28.74-9.45,9.29-1.42,6.42-5.79,6.32-7l12.57-4.83c1.85,1.47,21,24.47,21.55,30,.48,4.59-2.26,19-2.82,21.78-3.57,29.67,2.9,46.67,4.12,50.21,3.57,10.36,8.8,33.93,8.44,34.92-1.9,5.25-3.93,10.46-5.93,15.68a7.75,7.75,0,0,1-.56.88c-4.18-2.51-8.4-4.91-12.48-7.54s-4.86-5.57-9-8.43C199.45,399.32,191,424.33,189.9,424.54Z" transform="translate(0 -4.05)"/><path class="cls-11" d="M198.67,398.47a174.33,174.33,0,1,0-16.8-14.39" transform="translate(0 -4.05)"/><path class="cls-7" d="M274.6,173.57c1.57-3.58,10.49-5.38,13.65-5s12.86,3.86,14.41,4.73c.34.19,3,3.84,3,3.84.32,0,4.45,3.84,2.46,5.55,0,0,0,.15,0,.23a45.88,45.88,0,0,1-5.79,1.38c-1.24,2-7.27,2.41-11.53,2-3.28-.33-11.69-3.34-13.76-5.81C276,179.24,270,178.82,274.6,173.57Z" transform="translate(0 -4.05)"/><path class="cls-7" d="M211,150.14c16.69,1.48,18.09,13.47,19.73,18.3.11.2-2.72,3-11.4,2.35-9-.83-12.58-3.25-14.83-6.13-5.1-4.69-6.06-10.9-5.71-11.75C197.46,152.91,209.19,149.81,211,150.14Z" transform="translate(0 -4.05)"/><path class="cls-7" d="M308.1,183.53c0-.07,0-.19,0-.22,2-1.71,1.6-3.59.4-5.52,2.27.56,3.15,2.43,1.83,4.16A9.06,9.06,0,0,1,308.1,183.53Z" transform="translate(0 -4.05)"/><path class="cls-7" d="M305.1,177.72c-.46-1.1-.92-2.19-1.37-3.29l2.77.17.21,1.77-.15.33-.9,1.06,0,0Z" transform="translate(0 -4.05)"/><path class="cls-7" d="M202.93,157.08c-.06,1.18-.11,2.36-.17,3.53A2.67,2.67,0,0,1,202.93,157.08Z" transform="translate(0 -4.05)"/><path class="cls-7" d="M219.32,153.21l-2.91-.3C217.43,152.59,218.43,152.31,219.32,153.21Z" transform="translate(0 -4.05)"/><path class="cls-7" d="M205.4,152.48c-.18.41-.36.83-.55,1.24l-.45.51-.82,0C203.79,153.26,204.25,152.52,205.4,152.48Z" transform="translate(0 -4.05)"/><path class="cls-7" d="M203.58,154.26l.82,0c-.35.86-.16,2-1.37,2.4C203.22,155.84,203.4,155.05,203.58,154.26Z" transform="translate(0 -4.05)"/><path class="cls-7" d="M220.71,170.45l2-.82C222.32,170.59,221.71,171,220.71,170.45Z" transform="translate(0 -4.05)"/><path class="cls-7" d="M306.71,176.37l-.21-1.77,1,.57Z" transform="translate(0 -4.05)"/><path class="cls-7" d="M305.66,177.76l.9-1.06.06,1Z" transform="translate(0 -4.05)"/><path class="cls-7" d="M229.75,161.51l-.34-.6Z" transform="translate(0 -4.05)"/><path class="cls-7" d="M229.4,165.26l.34-.6Z" transform="translate(0 -4.05)"/><path class="cls-7" d="M307.57,183.91l.54-.39Z" transform="translate(0 -4.05)"/><path class="cls-7" d="M305.1,177.72l.59,0-.14.37Z" transform="translate(0 -4.05)"/><path class="cls-12" d="M211,150.14s-4.55,1-.87,8.71,9.2,6.41,9.2,6.41,8.28-.3,7.4-6.9C226.13,154,215.65,145.61,211,150.14Z" transform="translate(0 -4.05)"/><path class="cls-12" d="M286.11,169.63s-.89,9.58,4.16,10.88c12.47,3.21,11.59-7.85,11.59-7.85L292,169.23Z" transform="translate(0 -4.05)"/><path class="cls-13" d="M290.36,172.34c.82-2.4,2.29-3.18,4.63-2.45,4.13.45,3.12,8.11-1.7,7.3-.56-.71-1.84-1.2-2.44-2C292.44,174,292.35,173.41,290.36,172.34Z" transform="translate(0 -4.05)"/><path class="cls-14" d="M217,160.72c-5.48-2.33-2.41-5.11-2.86-5.81a5.66,5.66,0,0,1,8.14.55c1.82,2.53.39,3.67-2.39,5.23Z" transform="translate(0 -4.05)"/><path class="cls-7" d="M290.4,172c2.74,1.48,2.86,2.22.66,4C289.28,174.9,289,174,290.4,172Z" transform="translate(0 -4.05)"/><circle class="cls-8" cx="215.24" cy="151.75" r="1.56"/><path class="cls-15" d="M436.77,119.34c-.21,1.55-2.41,6.23-2.73,7.76-.62,2.85-7.44,12.91-8.69,14.37-2,2.37-4.26,4.54-6.43,6.77-.61.61-1.31,1.13-2.27,2l2,.19c3.66.3,7.36.33,11,1,3.82.66,5.34,3.18,4.77,6.9-3.83-3.46-8-2.79-12.13-.84-5,2.34-19.07,9.54-21.15,10.73-1.09.63-5.32,2.71-4.44,3.78s16.76,5.56,23.92,2.48c3.88-1.67,6.4-2.22,9.57-7-1,12.33-8.52,20-9.67,20.87a37.17,37.17,0,0,1-12.76,6.94,24.58,24.58,0,0,1-3.48.42c.33.41.53.7.78.95,13.79,12.34.4,30.62-2,35.54-16.62,24.92-36,28.3-41.28,30.68-1,.44-1.92,1-3.07,1.61,0-.76-9.72-9.18-8.78-10.12.11-.11-13.88-11.64-14.8-12.2a2.44,2.44,0,0,1-1.25-2.42,10,10,0,0,1,.33-1.63c.83-3,6.1-14.4,7.14-15.21s24.46,1.12,37-43.14c0-1.09-24-2.77-30-3.53a32.41,32.41,0,0,1-8.21-2.49c-3.16-1.32-6.14-3-9.2-4.58a2.1,2.1,0,0,1-.62-.36c-2-2.1-2.8-3.88-5.58-4.5-3.3-.73-7.59-4-9.78-6.47-5.64-6.44-9.48-11.77-11.38-20.14a75,75,0,0,1-1.72-15.94,111.53,111.53,0,0,0-1.13-17.22,29.24,29.24,0,0,0-5.1-12.53c-.58-.81-1.27-1.53-2.12-2.54-1.72,8.53-7.22,13.8-13.46,18.44-7.75,5.76-16.36,9.28-26.18,9.31a17.17,17.17,0,0,1-7.45-1.71c2.24-.42,4-.67,5.62-1.08a105.64,105.64,0,0,0,14.75-5.74c.94-.6,1.82-1.3,2.75-1.92A53.18,53.18,0,0,0,283.5,93c1.38-2,1.48-2.31,1.72-4.15-7.52,7-16.59,11.4-25.73,15.61a28.35,28.35,0,0,1-9.32,2.88c-2.28.21-21.32,1.29-23.27-.46-1.56,1.74-3,3.32-4.41,5-.4.47-8.76,11.91-13.19,14.31a6.07,6.07,0,0,0-2,2,83.05,83.05,0,0,1-9.53,11.71c-2.5,2.56-5.13,5-7.62,7.57-1.77,1.83-12.23,13.2-15.43,16-.44.38.33,7.56.52,10.39.22,3.33,3.83,12.25,4.75,13.55.81,1.13,3.43,24.49,3.76,26,.9,4,2.75,20.29,12.27,38.58-1.2.53-3.37-5.4-4.33-5.81-4.44-1.95-6.53-1-9.92-4.47a44,44,0,0,1-5-6.45c-.78.13-2.4,1.21-3.22,1.4-8.26-1.88-16.6-18.53-16.91-19.47-3.12-9.43-2.94-13-2.41-22.89.22-4,1.87-14.87,1.49-15.94-1.47-4.16-1.12-8.94.14-13.2.73-2.44,5.93-10.43,7.77-11.56-1.13-.42-11.11,1.17-15.72.86,1.2-1.79,10.46-12.77,11.34-14.7,7.75-26.81-9.63-32.5,6.2-66.37,4.94-10.83,11.6-17.14,15-20.75,18.07-15,26.14-18.61,36.36-24.52,1.1-.49,31.56-18.62,37.42-19.42,2.2-.3,33.16-11.26,50,2.36,1.05.55,4.95,2.25,3,8.3,3.33-.83,20.36-5.62,26.08-3.81,3.72,1.17,17.32,5.28,20.06,6.86,14.77,7.92,22.31,21,23.86,23.33,1.19,1.79,2.66,3.81,3.69,5.7,3.05,5.53,8.18,40.33,8.33,43.51.15,3,.38,6,.57,9.07A61.39,61.39,0,0,0,396,126.1c5.07,7.13,16.27,7.42,21.87,5.81,2.6-.75,12.84-6.89,14.95-9C433.44,122.79,436.14,119.51,436.77,119.34ZM260.87,79.23,259,80c-2.3,1.25-4.79,2.24-6.07,4.85l6-4.22,2-1.37.56-.26c-.05,0-.15-.14-.16-.13S261,79.1,260.87,79.23ZM301.1,87c6,22,4.87,32.29,5,38.29,1,17.27,6.5,23.84,12,30.3a45.2,45.2,0,0,0,4.2,3.86l.06,0h-.1a18.94,18.94,0,0,0-.82-2.17c-2.47-4.77-10.55-55.35-11.27-59.75C306.63,92.27,300.68,86.06,301.1,87Z" transform="translate(0 -4.05)"/><path class="cls-16" d="M399.66,282.3l3.48.65C401.59,283.89,400.56,283.6,399.66,282.3Z" transform="translate(0 -4.05)"/><path class="cls-15" d="M434.33,122.47l.74-1Z" transform="translate(0 -4.05)"/><path class="cls-17" d="M258.58,80.6l-6,4.22c1.28-2.61,3.77-3.6,6.07-4.85C258.63,80.18,258.61,80.39,258.58,80.6Z" transform="translate(0 -4.05)"/><path class="cls-18" d="M423.19,137.69l-2.48,3.19-2.65-.91,5.16-2.23Z" transform="translate(0 -4.05)"/><path class="cls-19" d="M389.23,238.58c-.14-.38-.48-.85-.37-1.15a18.35,18.35,0,0,1,1.2-2.22C390.85,237.09,390.77,237.4,389.23,238.58Z" transform="translate(0 -4.05)"/><path class="cls-20" d="M397.27,200.27l1.08,2c-1.28-.08-1.69-.72-1.6-1.69Z" transform="translate(0 -4.05)"/><path class="cls-21" d="M247.1,106.12" transform="translate(0 -4.05)"/><path class="cls-22" d="M258.58,80.6c0-.21.05-.42.08-.63l1.89-.74h0Z" transform="translate(0 -4.05)"/><path class="cls-22" d="M260.55,79.23c.13-.13.26-.27.4-.39s.11.09.17.13l-.57.26Z" transform="translate(0 -4.05)"/><path class="cls-18" d="M423.22,137.74a3.29,3.29,0,0,1,.33-.23s.09.06.13.09l-.49.09Z" transform="translate(0 -4.05)"/><path d="M336.65,240c3.5.4,5.92,2.7,8.19,5.22,4.82,5.34,9.67,10.66,14.39,16.09.83.95,1.12,2.36,1.74,3.77,3.27,2.25,58.43,22.33,62.33,24q8.52,3.57,17.13,6.86a3.38,3.38,0,0,1,2.56,2.79,4.64,4.64,0,0,0,.76,2c4.2,5.67,15,30.71,15.36,32.43.28,1.47.63,3-.52,4.49-.22-.3-.48-.51-.55-.76-1.63-6.36-5-11.92-7.93-17.68-2.2-4.31-9.32-15.75-10.86-17.25-.94-.92-4-.07-5.26-.1-4.79-.13-21.38,5.91-29.46,18.38-2.76,6.38-20,20.84-26.4,93.21,0,.55,0,1.1,0,1.76l-4.86,2.19c-.92-20.76,9-61.67,13.43-72.41,2.21-5.39,10.17-30.42,30.78-42.05,3.94-2.54,8-4.65,12.91-4.58a25.86,25.86,0,0,0,4.43.06,6.33,6.33,0,0,0-1.43-1.32c-1.59-.75-29.37-12-33.54-13.14-12.1-4.61-25.62-9.5-38.13-13.75a4.37,4.37,0,0,0-5.8,2.93c-1.81,8-3.52,16.09-5.65,24-6.42,24-12.41,48.14-17.76,72.42-2.48,11.26-7,21.77-12.38,31.88-3.1,5.82-8.81,24.33-9.21,27.49-.43,3.33-1.39,11.26-1.65,11.84a1.85,1.85,0,0,1-1.91,1.17c-1,0-1.09-.78-1.25-1.49-.79-3.43-4.75-16.88-5.95-20.18-.25-.67-2.67-6.43-4.68-8.06-7-5.65-21.81-22.89-23.48-24.61a6.5,6.5,0,0,0-9.17-.05c-.18.17-26,27.24-28.29,29.46l-4.14-1.88c.38-.53,36.87-40.35,37-41.58.1-.8,3.39-4.84,4.55-6.28-.37-.12-21.61-.56-31.37-4.79-12-4.58-22.2-21.7-23.75-23.68.3,15,5.16,27.44,10.41,39.7.88,2.06,3.71,10,3.27,12-1.12,5.11-7,18.55-8,20.74L216.92,408c.37-.84,6.23-13,8.84-18.42a3.35,3.35,0,0,0,.1-3c-1-2.35-4.41-11.63-6.66-13a19.92,19.92,0,0,1-2.42-2.09c-1.62,2.45-3.21,4.69-4.62,7.05A214.19,214.19,0,0,0,195,414.5c-1.77,4.83-2.67,17-3.08,18.21-9.38-15.31-13.34-53.43-14.34-81.32-.39-6.65,4-71.2,4.53-75.24.47-3.54.4-4.38-3.45-3-6.69,2.39-31.1,10.18-32.05,10.58a3.64,3.64,0,0,0-1.91,2.27c-1.62,4-2.88,22.82-3.26,28a5.05,5.05,0,0,1-.67,2.33,14.48,14.48,0,0,1-.73-1.61c-.87-2.65-2.36-22.36-1.95-25.77.06-.46.08-.93.14-1.67l-4.85,1.54c-.22-.93-.41-1.75-.64-2.74,1.17-.44,6-2.26,7.21-3.52,1.41-1.45,3.65-2.22,5.67-2.93,4.89-1.71,29.83-10.2,37.19-12.84.21-.29.38-.42.38-.55-.05-2.33,1-3.57,3.32-4.23,3.28-1,6.46-2.27,10-3.56-.63-1.12-4.14-7.63-5.52-10A3.32,3.32,0,0,0,189.3,247c-7.42-.42-14.1-6.8-16.58-22.92a2.7,2.7,0,0,1,.21-1.4,1.34,1.34,0,0,1,2.45-.21,4,4,0,0,1,.56,1.56c.77,5.84,3.69,10.69,7.13,15.26a25.18,25.18,0,0,0,6,5.19c-.86-2.72-6-15.33-6.16-15.79-1.32-4.78-5.6-35-5.85-37.57a5.32,5.32,0,0,0-.95-2.35c-2,6.92-2.64,14-4,21-1-3-.88-6-.71-9a94.49,94.49,0,0,1,3.35-19.1,5.85,5.85,0,0,0,0-3.49,31.77,31.77,0,0,1-1.26-11.39c0-.77,0-1.54,0-2.69-3.14,1.24-12.79,3.55-16.28,9.74a13.71,13.71,0,0,1-.54,1.36,6,6,0,0,1-1-5.93,28.34,28.34,0,0,1,2.46-5.44c1.87-3.16,3.94-6.21,5.91-9.31.37-.59.68-1.22,1.25-2.27-1.21,0-2,0-2.82,0-2.37-.22-7.1-.77-7.1-.77s11.39-12.23,10.28-29.38c-5.51-37,11.44-72.08,48.13-86,9.64-3.65,54.36-12.28,74.39,2a12.52,12.52,0,0,1,4.25,7.57c.41,2.14-.33,3.7-2.13,4.48-1.22-6.37-5.95-9.5-11.26-12-23.64-9.12-51.5-3.58-61.17.57-28.05,12-54.6,35.95-49.34,85.89-.61,4.69-.3,15.26-7.59,24.12a8.77,8.77,0,0,0,5.61-.31c4.3-1.84,15.09-24.14,19.26-31,7.81-12.84,18.45-23.06,29.44-33,4.92-4.45,9.92-8.83,15.12-12.94a58.06,58.06,0,0,1,28.91-11.92,33.1,33.1,0,0,1,13.31,1c4,1.11,7.12,3.27,8.32,7.51a8,8,0,0,1-.31,5.63c-.19.41-.79.63-1.21.94-.26-.44-.7-.85-.75-1.32-.66-5.35-2.78-7.76-7.94-9.1-6.07-1.58-12.07-1-18,.6a55.5,55.5,0,0,0-19.5,9.5c-12,9.29-33,25.93-40.59,39-8.37,14.33-28.48,47.41-30.51,50-.14.25-.26.51-.64,1.28,1-.56,9.17-3.83,9.76-4.21,7.59-4.81,14.73-10.14,20.34-17.3,2.81-3.58,43.13-48.63,51.56-54.91,4.87-3.62,19.65-15,28.15-14.42a13.45,13.45,0,0,1,3.27.65c1,.34,1.9.93,1.51,2.42-1.1-.1-2.18-.25-3.26-.3-3.29-.13-11.19,3.65-12.17,4.35-10.27,7.38-29.78,24.86-30.36,25.48.73,0,21.12,2.89,50.08-14,2.39-1.4,4.59-5.94,5-8.4a11.2,11.2,0,0,1-2.34-.2,1.73,1.73,0,0,1-1.1-1.06,1.65,1.65,0,0,1,.79-1.27,8.29,8.29,0,0,1,5.08-1.09,28.69,28.69,0,0,1,15.42,5.9,21.68,21.68,0,0,1,6.63,9.14c2.79,6.43,4.15,13.27,5.26,20.13.93,5.75,1.53,11.58,2,17.39a53.09,53.09,0,0,0,6.84,23c5.36,9.23,13,15.69,23.53,18.37,30.13,9,52.46-11.47,59.32-16.61a5.42,5.42,0,0,1,2.29-1.14c-.45.76-.85,1.56-1.36,2.27a49.57,49.57,0,0,1-10.79,10.51,58.63,58.63,0,0,1-17.29,9.67,4.21,4.21,0,0,0-.76.46c.53,3.17-3.66,18.72-6.26,22.93a102.12,102.12,0,0,1-7.13,10.79,48.7,48.7,0,0,1-15.93,12.47c-2.27,1.17-6.46,1.1-8.95,1.08C337.93,231.88,335.44,236.72,336.65,240Zm-103.84-91.3a12.68,12.68,0,0,1-2.41-.6c-2.84-1.26-13.5-6.14-16.12-6.5-4.52-.63-12-3-20.31,4.61-3,3.28-6.36,6.27-9.6,9.35a3.17,3.17,0,0,0-1.14,2.25c-.43,7.82-.9,15.64-1.35,23.47a15.38,15.38,0,0,0,.1,1.91c.24,3.11.47,6.22.74,9.32.67,7.64,1,15.28,2.41,22.88a131.43,131.43,0,0,0,17.57,45.84c1.76,2.88,9.53,16,12.05,18.57,2.16,2.23,16.09,9.2,20.37,9.92.94.16,10.36-.43,11-.43a55.68,55.68,0,0,0,18.29-3.41c.57-.2,1.16-.33,1.84-.52a2.37,2.37,0,0,1-1.32,2.53,17.44,17.44,0,0,1-3.18,1.65c-2.47.92-18.19,4.84-23.73,4.1-.62-.08-1.25-.07-2-.11a7.33,7.33,0,0,0,.19,1c1.54,4,2.79,16.41,10.21,28,.34.59.65,1.19,1,1.89-2.32-.33-2.31-.36-3.8-2-4.91-5.28-11.43-23.66-12.5-26.14a11.73,11.73,0,0,0-3.21-4.62,58.67,58.67,0,0,0-7.36-4.24c-.31.31-.47.4-.52.53-.15.45-.27.92-.39,1.38-1.8,7.33-2.4,14.82-3,22.31a14,14,0,0,0,.88,6.8c.47,1.1,1,2.18,1.48,3.27,16.1,27.13,33.39,35.5,63.2,29.51a8.93,8.93,0,0,0,5.68-4.4c2.77-5.22,6-10.22,8.65-15.49,6.85-13.55,13.4-27.26,20.25-40.81a227.77,227.77,0,0,0,16.1-42.76,4.44,4.44,0,0,0,.17-2.3,38.47,38.47,0,0,0-1.71-4.06c-4,4.11-7.68,8.06-11.49,11.92a86.24,86.24,0,0,1-14.7,11.9c-.52.34-1.09.59-1.64.88a2.91,2.91,0,0,1,1-1.51c21.54-22.19,28.2-31.26,47.42-83.91-.76-.07-11.18-1.61-15.33-4-6.87-4-13.06-8.8-16.85-16.09-10.94-20.05-4.32-41-13.09-63.28C302,85.23,292.39,84.76,288.53,84a28.56,28.56,0,0,1,0,4.16,11,11,0,0,1-3.84,6.47c-2.46,2.23-13.78,12.27-57.87,16.43-.5,0-5.11,3.68-6.64,5.49-4.8,5.68-9.47,11.46-14.17,17.22a13.72,13.72,0,0,0-1.07,2.1C217.07,134.38,226,139.19,232.81,148.68Zm74.07,278.46c.29-1.27,6.3-21.75,8.55-27.38,1.51-3.76,7.32-8.72,12.8-33.63,3.07-13.48,6-27,9.43-40.37,4.72-18.57,14.77-59.67,15.43-61.53a3.59,3.59,0,0,0-.79-3.93c-2-2.31-10.58-12.23-14-13.68a10.39,10.39,0,0,0-.92,2.37c-.31,2.42-6.86,22.76-9.44,29.06-7.14,17.48-15.53,34.36-24,51.22-9.46,18.88-20.36,36.79-35.28,52a7.85,7.85,0,0,0-.78,1.3c3.34-1.45,5.55-.21,7.54,1.77.85.85,18.19,19.74,23.24,23.48a8.67,8.67,0,0,1,2.66,3.31C302.49,413.87,305.94,424.32,306.88,427.14ZM187.25,266.55a24.9,24.9,0,0,0-.38,3.12c-.11,6.41-5.77,74.06-5.71,78,0,32.6,7.75,68.8,8.08,70.72,1.7-12.47,18-40.42,22.45-47.83,1.44-2.41,3.16-4.5,6.7-3.15-.9-3.17-1.75-6-2.5-8.84-3.94-14.88-4.32-30-3.2-45.26a197.54,197.54,0,0,1,3-22.08c.33-1.76.81-3.48,1.32-5.59-.92-.6-2.13-1.51-3.45-2.21a13.25,13.25,0,0,1-5.12-4.59c-.9-1.41-1.82-2.82-2.63-4.29-1.78-3.22-3.5-6.47-5.25-9.71a3.61,3.61,0,0,0-3.91-1.68C193.66,264.23,190.67,265.31,187.25,266.55Zm154.43-45.09c2.11,0,4.11,0,5.91-.88a43.73,43.73,0,0,0,13.25-10.13,50.48,50.48,0,0,0,8.44-14.12,62.14,62.14,0,0,0,4.42-12.64c.2-1.05.32-2.12.53-3.52l-2.49.53c-1.72,7.63-4.65,14.25-9.83,19.81a53.51,53.51,0,0,1,1.78-6.66c.93-2.8,2-5.56,2.84-8.38a43.08,43.08,0,0,0,.9-4.47H357.35c-.35,1.12-.67,2-.91,2.92-.43,1.7-.78,3.42-1.23,5.12a6.49,6.49,0,0,0,.74,5.29,24.68,24.68,0,0,1,1.83,3.63,9.94,9.94,0,0,1-1.24,9.36,3.9,3.9,0,0,1-5.58,1.47c.8-1.64,1.63-3.26,2.39-4.92a7.37,7.37,0,0,0-.14-6.9C349.33,205.2,345.54,213.25,341.68,221.46ZM280.5,356.61c-.62-.13-.78-.23-.92-.19-40.79,5.23-61.19-24.91-62.9-34.46a36.87,36.87,0,0,0-.59,6.46,2.57,2.57,0,0,0,.32,1.13c1.26,2.67,2.4,5.41,3.83,8,16.48,34.38,54.42,24.49,56.46,23.36C278.19,360.07,279.12,358.24,280.5,356.61ZM178,176.26V161.62a4.23,4.23,0,0,0-1,3C176.67,169.55,177,175,178,176.26Z" transform="translate(0 -4.05)"/><path d="M435,123.14c-5.28,18-30.26,31.63-54,24A28.92,28.92,0,0,1,364,134.7a74.51,74.51,0,0,1-5.07-9.5A230,230,0,0,1,346,88.62a69.93,69.93,0,0,0-7.53-18.35c-3.57-5.89-10.86-18.58-33.34-16.2a9.46,9.46,0,0,0-6.34,2.56c-.88-1.25,3.37-4.06,4.88-4.46,27.91-3.13,34.19,9.9,37.89,15.2,3.51,5,10.34,25.16,11.67,29.52a203.53,203.53,0,0,0,11.51,28.67,47.43,47.43,0,0,0,4.22,7,23.42,23.42,0,0,0,13.14,9.12,52.47,52.47,0,0,0,26.79.8c10.84-2.66,19.62-8.38,25.4-18.19C434.48,123.86,434.78,123.51,435,123.14Z" transform="translate(0 -4.05)"/><path d="M306.76,20.9A47.12,47.12,0,0,1,337.81,15c27.46,3,47.87,32.05,49.84,52.83a133.89,133.89,0,0,1,1.18,28.22c-.31,5.34.32,25.25.93,29.83a10.61,10.61,0,0,0,1.27,3.6c1.49,2.71,3.52,4.74,7,4.66,2.3-.05,4.6,0,6.8,0-3.42,3.77-10.59,4-14.27.25a11.28,11.28,0,0,1-1.88-2.47c-6.27-10.63-1.25-41.35-4.65-67-3.66-20.82-19.42-44.36-50.55-46.43a58.68,58.68,0,0,0-23.85,3A2.16,2.16,0,0,1,306.76,20.9Z" transform="translate(0 -4.05)"/><path d="M382.69,125.31c-.38-.94-.82-1.86-1.13-2.82a119.71,119.71,0,0,1-5.37-25.76c-1-10.74-2.08-21.46-4.78-32a58.35,58.35,0,0,0-12.07-23.69,36.54,36.54,0,0,0-20-12.37,64,64,0,0,0-23.81-1.09,51.43,51.43,0,0,0-5.73,1.6,5.19,5.19,0,0,1-1.52,0c.1-.57,0-1.39.36-1.68a7.71,7.71,0,0,1,2.85-1.66,59.54,59.54,0,0,1,8.9-1.74c8.92-.79,17.72-.19,26.21,3,23.94,11.18,28,29.23,30.52,40.07,1.45,6.19,2.11,28.39,2.53,33.16.48,5.56,1.34,11.09,2.15,16.62C382.17,119.68,382.9,125.25,382.69,125.31Z" transform="translate(0 -4.05)"/><path d="M394.75,230.41c8.39-11.84,9.64-31.13-11.92-36.82-.82-.06-1.65-.35-1.72-1.33-.08-1.15.81-1.53,1.72-1.59a16,16,0,0,1,3.09.11c7.93,1,17.68,9.53,19.24,17.16a21.72,21.72,0,0,1-1.47,13.36,63.1,63.1,0,0,1-13.25,19.25,29.5,29.5,0,0,1-5.23,3.77,5,5,0,0,1-4.12.71c.36-.53.61-1,.92-1.36a48.39,48.39,0,0,0,4.4-5.67c1.08-1.9,13.3-20.08-9.08-36.5a2.62,2.62,0,0,1-.49-1.9,2.17,2.17,0,0,1,1.6-1.08C400.13,210.61,394.07,235.78,394.75,230.41Z" transform="translate(0 -4.05)"/><path d="M303.19,21.77c0-.66,0-1.21.09-1.75A7.46,7.46,0,0,0,299,11.89a23.44,23.44,0,0,0-6.78-2.21C280.33,7.75,268.52,8.2,257,12.26c-6.88,2.43-37.72,18.29-40.24,19.29a16.11,16.11,0,0,1-5.15,1.58,8.19,8.19,0,0,1,1.31-1.5c4-2.45,32.14-18.65,35.12-20C264.92,4,283.69,4.78,289.44,4.82c6.64,0,25.8,6.09,14.77,16.81C304,21.82,303.63,21.72,303.19,21.77Z" transform="translate(0 -4.05)"/><path d="M173.59,234.58a23.26,23.26,0,0,1-2.9-.75c-9.94-6.07-26-33.7-6.07-62.16a2.21,2.21,0,0,1,.7-.64c.41-.16,1-.35,1.3-.18a1.42,1.42,0,0,1,.61,1.16,4.87,4.87,0,0,1-.84,2.19c-12.16,20.54-4.08,47.47,6.45,58.51a12,12,0,0,1,1,1.48Z" transform="translate(0 -4.05)"/><path d="M430.73,169c1.86,13.3-19,27.32-30.87,21.67h0c15.4-.83,23-9.46,26.49-13.19-1.2.3-13.18,7.23-26.43,2.28h0a7.7,7.7,0,0,1-2.35-2c-.61-.73-1.1-1.7-.22-2.59s1.59-.17,2.29.37c1.81,1.42,17.93,7.17,31.09-6.55Z" transform="translate(0 -4.05)"/><path d="M359.29,257c.63-.67,1.25-1.36,1.92-2,2.83-2.7,30-25.63,10.05-46.88a4.88,4.88,0,0,1-.5-1.24c.48-.18,1.1-.64,1.41-.48a14.73,14.73,0,0,1,3.84,2.32,24.92,24.92,0,0,1,6.88,12.92c3.35,14.43-8.88,28.81-14,32.83a15.07,15.07,0,0,1-7.1,3.26,17,17,0,0,1-2.26,0Z" transform="translate(0 -4.05)"/><path d="M290.64,163.41c-1.76,1.71-4.76.86-5.84,3.7,10-1.78,18.93.77,24.47,8,.78.9,6.73,3.3,8.49,4l0,.57-3.41,1.68,2.26,2.61c-.7.69-1.4.27-2,.05-1.27-.48-2.48-1.11-3.74-1.6-1.53-.6-1.67-.49-2.69.89-1.7,2.26-10.57,4-12.81,3.64.5-.62.74-1.2,1-1.22,3-.22,10.18-4,11.43-4.49-2-6.26-10.89-11.36-19.34-9.53-1.26,3.05.39,5,2.34,6.74,2.23,2,5.71,1.56,8.21,1.35-1.95,2.75-4.14,2.9-7.12,2.36-3.88-.7-8.56-5.44-8.31-9.79-3,.37-3.27-.06-9.67,3.9,2.3,4.32,9.07,5.89,9.89,6.92-2.76,1-8.4-1.72-11.61-5.58l-3.3,3.55c2.63-9.11,9.08-11.51,11.24-13.3-3.09.94-5.77,2.71-8.61,4.19,2.64-4.3,7-6.08,11.35-7.74C287,162.69,288.76,162.53,290.64,163.41Z" transform="translate(0 -4.05)"/><path d="M231.22,156.06l-1.9-.69c-.15.19-.33.33-.31.43a5.39,5.39,0,0,0,.47,2,15.59,15.59,0,0,1,2.21,11c-.11.85-.1,1.77-1.44,2.26-1.4-5.81-4.26-17.93-18.46-18.27,0,2.34-2.71,10,7.22,11.16,1.25-.07,1.25,0,2,1-3.3.75-3.17,1-8.05,0-2.71-2.09-4.85-4.18-5.28-7.56a16.2,16.2,0,0,1,.39-3.69c-2.13-.15-3.79.26-7.25,1.77l1,5-.56.27c-2.47-1.12-3.49-3.57-4.91-6l-4.73,1.05c.62-1.89,1.92-2.64,3.32-3.48L194,151c.28-.15.47-.33.68-.34,3.58-.29,7.24-.42,10.56-1.83a15.23,15.23,0,0,1,7.22-1c4.64.3,8.52,2.46,12.29,4.93a11.85,11.85,0,0,0,1.92,1.14c-.4-1.45-8.46-5.5-11.36-6.83-.59-.27-1.15-.59-1.72-.89l.18-.63a7.07,7.07,0,0,1,1.67.13,51.74,51.74,0,0,1,12.28,5.87A8.06,8.06,0,0,1,231.22,156.06Z" transform="translate(0 -4.05)"/><path d="M274,158.2a15.36,15.36,0,0,1,6.23-3.29c3-.91,9.82-4.53,23.12-1.07,2.14.49,11.07,5.74,13.4,7.56a13.1,13.1,0,0,1,3.25,3.93,11,11,0,0,1-1.72-.25c-3.58-1.11-7.12-2.32-10.73-3.35-1.9-.54-14.9-1.67-19.43-1.78a56.18,56.18,0,0,0-9.54.24C276.42,160.51,275.23,159.81,274,158.2Z" transform="translate(0 -4.05)"/><path d="M238.61,245c1.41,1.35,2.71,2.73,4.16,3.93,6.56,4.82,17.55,6.35,20.12,6.87-.73-2.2,0-3.36,1.94-4.1,1.5,2.58,2.21,5.64,5.45,7.3a52.91,52.91,0,0,1-10.31-.07c-8.37-.5-15.71-4.63-18.2-5.68a6.36,6.36,0,0,1-2.72-1.9c-1.14-1.63-5.17-1.21-5.64-1.11-4.38,1-7.66-.16-10.14-3.87a3.51,3.51,0,0,0-3.8-1.75c-2,.28-3.95.43-5.92.64-.15,0-5.56-3.46-5.78-4.52a1.71,1.71,0,0,1,.91-2,1.5,1.5,0,0,1,1.93.43c2.58,4.1,10.33,2.61,12.22,2.56.42,0,.92.76,1.24,1.14,3.92,4.65,8.83,4.77,11.77,3.49C236.65,246,237.42,245.54,238.61,245Z" transform="translate(0 -4.05)"/><path d="M257.74,219.21c1,3.59,1.27,7.22-1,10.45a6.14,6.14,0,0,1-6.2,2.74c-2.92-.44-5.89-.88-8.77.08a38.47,38.47,0,0,0-5.25,2.23,5.67,5.67,0,0,1-6.47-.73c-1-.72-2-1.25-3-2a21.53,21.53,0,0,1-2.45-2.23c-1.85-1.86-3.57-3.87-5.52-5.61a6.82,6.82,0,0,1-2.15-3.35c-.62-2.3.67-4.05,3.47-4.49-.94,2.51.09,4.24,1.9,5.89a11.7,11.7,0,0,1,2.46,3.79c1.41,3.07,4.12,4,7,4.71,3.12.73,6-.06,8.81-1.38a6.6,6.6,0,0,1,4.36-.73,23,23,0,0,0,3.82.2,6.63,6.63,0,0,0,7-4.86c.41-1.21.62-2.47.94-3.7.1-.37.24-.72.37-1.08Z" transform="translate(0 -4.05)"/><path d="M235.12,197.75c.55-2.56,1.13-5.12,1.64-7.69.88-4.38,1.92-8.74,2.54-13.16A38.8,38.8,0,0,0,238.22,160a6.87,6.87,0,0,1,2.58,2.45c.22.33.33.73.53,1.07a14.14,14.14,0,0,1,1.35,12c-2.26,7.06-4.44,14.15-6.67,21.22a8.66,8.66,0,0,1-.52,1.06Z" transform="translate(0 -4.05)"/><path d="M218.39,255.26a3.11,3.11,0,0,1,3.35.21c1.66.94,3.88,4.23,10.51,2.69a11.82,11.82,0,0,1,2.38,0c1,.14,2,.49,2.18,1.58s-6,3.37-8.26,3.71C222.83,261.64,218.77,257.14,218.39,255.26Z" transform="translate(0 -4.05)"/><path d="M228.06,170.82c-4,1.33-7.77,2.17-11.73.68a2,2,0,0,1-.85-.42c-.33-.4-.79-.94-.72-1.34s.67-.84,1.13-1a3.07,3.07,0,0,1,1.65-.05C220.48,169.37,227.42,170,228.06,170.82Z" transform="translate(0 -4.05)"/><path d="M308.91,172.66a19.83,19.83,0,0,1-2.82-2.66c-1.52-2.11-4.43-2.77-5.91-5.78,1.29.27,2.21.22,2.82.64A14.07,14.07,0,0,1,308.91,172.66Z" transform="translate(0 -4.05)"/><path d="M211,145a6.12,6.12,0,0,1-1.14.81c-3.34,1-6.68,1.9-10.3,2.92,1-1.65,2.28-2.52,5.18-3.4C206.64,144.77,208.6,144.19,211,145Z" transform="translate(0 -4.05)"/><path d="M226,177.82c-1.37,1.65-5.31,3.5-8.26,3.86C220.19,179.91,223.2,179.07,226,177.82Z" transform="translate(0 -4.05)"/><path d="M268.75,191c-1.95-.78-7.41-5.29-8.77-7.09C261.69,184.46,266.62,188.38,268.75,191Z" transform="translate(0 -4.05)"/><path class="cls-23" d="M138.37,115.3c-.23-2.28-.37-4.58-.73-6.84-.59-3.78-1.17-7.59-2-11.31-1.81-7.68-6.69-12.42-14.33-14.41a98.64,98.64,0,0,0-15.17-2.44,17,17,0,0,1-3-.47c1.69-.17,3.38-.32,5.06-.51a76.76,76.76,0,0,0,14.5-2.64,18.08,18.08,0,0,0,12.6-12.62,76.24,76.24,0,0,0,2.65-14.51c.18-1.67.33-3.34.68-5,.16,1.66.26,3.33.51,5,.58,3.93,1.1,7.87,1.87,11.76,1.79,9,7.26,14.49,16.27,16.19,5.19,1,10.46,1.53,15.7,2.27a2,2,0,0,1,.94.29c-1.7.17-3.4.32-5.1.5a73.16,73.16,0,0,0-14.88,2.8,17.84,17.84,0,0,0-12,12,72.46,72.46,0,0,0-2.79,14.88c-.18,1.69-.33,3.37-.49,5.06Z" transform="translate(0 -4.05)"/><path class="cls-24" d="M87.72,70.75c-.08-.79-.13-1.59-.25-2.37-.21-1.31-.41-2.63-.71-3.91a6.39,6.39,0,0,0-5-5,34.38,34.38,0,0,0-5.25-.84,5.45,5.45,0,0,1-1.05-.16c.59-.06,1.17-.11,1.75-.18a26.57,26.57,0,0,0,5-.91A6.29,6.29,0,0,0,86.63,53a25.79,25.79,0,0,0,.91-5c.07-.58.12-1.16.24-1.74.06.58.09,1.15.18,1.73.2,1.35.38,2.72.64,4.07a6.59,6.59,0,0,0,5.64,5.6c1.8.34,3.62.53,5.44.79a.7.7,0,0,1,.32.1l-1.76.17a25.81,25.81,0,0,0-5.16,1,6.17,6.17,0,0,0-4.16,4.17A25.81,25.81,0,0,0,88,69c-.06.58-.11,1.16-.17,1.75Z" transform="translate(0 -4.05)"/><path class="cls-24" d="M100.63,141.73c-.14-1.33-.22-2.67-.42-4-.35-2.21-.69-4.42-1.2-6.59a10.74,10.74,0,0,0-8.35-8.4,56.51,56.51,0,0,0-8.84-1.42,10,10,0,0,1-1.77-.28l3-.29a44.88,44.88,0,0,0,8.45-1.54,10.55,10.55,0,0,0,7.35-7.36,45,45,0,0,0,1.54-8.45c.1-1,.19-2,.39-2.93.1,1,.16,1.94.3,2.9.34,2.29.64,4.59,1.09,6.85,1,5.24,4.23,8.45,9.48,9.43,3,.57,6.1.9,9.15,1.33a1.17,1.17,0,0,1,.55.17c-1,.1-2,.18-3,.29a42.74,42.74,0,0,0-8.68,1.63,10.42,10.42,0,0,0-7,7,42.62,42.62,0,0,0-1.62,8.67c-.11,1-.2,2-.29,2.95Z" transform="translate(0 -4.05)"/><path class="cls-25" d="M73,179.24c-.09-.81-.13-1.62-.26-2.42-.21-1.34-.41-2.68-.73-4A6.52,6.52,0,0,0,67,167.73a34.59,34.59,0,0,0-5.36-.86,5.07,5.07,0,0,1-1.07-.17l1.79-.17a27,27,0,0,0,5.12-.94,6.36,6.36,0,0,0,4.45-4.46,27,27,0,0,0,.94-5.12,15.82,15.82,0,0,1,.24-1.78c.06.59.09,1.18.18,1.76.2,1.39.39,2.78.66,4.16a6.71,6.71,0,0,0,5.75,5.71c1.83.35,3.69.54,5.54.81a.63.63,0,0,1,.34.1c-.6.06-1.21.11-1.81.18a25.44,25.44,0,0,0-5.25,1,6.33,6.33,0,0,0-4.25,4.26,25.44,25.44,0,0,0-1,5.25c-.07.6-.12,1.2-.18,1.79Z" transform="translate(0 -4.05)"/></svg>