<svg id="Layer_5" data-name="Layer 5" xmlns="http://www.w3.org/2000/svg" viewBox="0 0 118.55 108.5"><defs><style>.cls-1,.cls-3,.cls-4,.cls-5{fill:none;stroke-miterlimit:10;}.cls-1,.cls-4,.cls-5{stroke:#201600;}.cls-1,.cls-3{stroke-width:5px;}.cls-2{fill:#e9a854;}.cls-3{stroke:#ab7849;}.cls-4{stroke-width:2px;}.cls-5{stroke-width:3px;}</style></defs><title>gears</title><path class="cls-1" d="M291.64,240.09a45.8,45.8,0,1,1-24,29.41" transform="translate(-241.87 -232.81)"/><circle class="cls-2" cx="6.24" cy="71.19" r="6.24"/><circle class="cls-3" cx="24.31" cy="97.18" r="8.82"/><path class="cls-4" d="M262,255.64,260.21,252l.2-.15c.73-.5,1.45-1,2.19-1.49a.38.38,0,0,0,.18-.42q-.11-1.15-.15-2.31a.3.3,0,0,0-.19-.31l-2.39-1.18-.26-.14,1.3-3.88,1.89.35c.35.06.71.14,1.06.18a.33.33,0,0,0,.26-.1c.54-.61,1.05-1.22,1.6-1.82a.31.31,0,0,0,.06-.36c-.32-.92-.63-1.85-.93-2.74l3.68-1.84c.44.65.94,1.31,1.36,2a.87.87,0,0,0,1.07.48,11.18,11.18,0,0,1,1.92-.1.28.28,0,0,0,.28-.16c.39-.81.8-1.61,1.2-2.42,0-.09.09-.17.14-.27l3.88,1.3-.27,1.46c-.09.5-.18,1-.28,1.49,0,.14,0,.2.13.29.6.51,1.2,1,1.78,1.55a.33.33,0,0,0,.38.09l2.73-.92,1.84,3.68-1.56,1.07c-.28.19-.55.39-.84.57a.29.29,0,0,0-.14.32c.07.79.13,1.58.17,2.38a.29.29,0,0,0,.18.29c.81.39,1.61.8,2.42,1.2l.24.13-1.3,3.88-1.45-.27c-.51-.09-1-.19-1.52-.27a.31.31,0,0,0-.24.1l-1.61,1.84a.29.29,0,0,0-.06.34c.29.84.57,1.69.86,2.53,0,.09.05.17.07.24l-3.67,1.82-.75-1.09c-.29-.43-.59-.85-.87-1.28a.36.36,0,0,0-.4-.18c-.77.08-1.55.12-2.33.16-.15,0-.22,0-.29.17-.39.8-.79,1.6-1.19,2.39,0,.09-.09.18-.14.28l-3.88-1.3.27-1.47c.09-.49.17-1,.27-1.47,0-.15,0-.21-.14-.31-.6-.5-1.2-1-1.78-1.55a.31.31,0,0,0-.36-.08l-2.53.86Zm8.9-2.68a5.13,5.13,0,1,0-3.24-6.5A5.14,5.14,0,0,0,270.94,253Z" transform="translate(-241.87 -232.81)"/><circle class="cls-2" cx="70.18" cy="48.37" r="34.39"/><path class="cls-5" d="M295.3,304.4l-6.4-6.4c.09-.13.19-.3.31-.45,1.18-1.56,2.35-3.12,3.55-4.66a.84.84,0,0,0,.1-1c-.7-1.55-1.34-3.13-1.95-4.72-.13-.33-.25-.48-.61-.52l-5.85-.81-.63-.1v-9.07l4.22-.59c.78-.11,1.57-.2,2.35-.35a.76.76,0,0,0,.47-.41c.7-1.64,1.35-3.3,2.07-4.93a.69.69,0,0,0-.12-.81c-1.31-1.71-2.61-3.43-3.86-5.08l6.42-6.45c1.38,1,2.9,2.08,4.28,3.27a1.91,1.91,0,0,0,2.58.25,26.63,26.63,0,0,1,3.95-1.57c.29-.1.43-.2.47-.52.26-2,.54-3.94.82-5.91,0-.22.07-.44.11-.67h9.06c.15,1.1.3,2.18.46,3.26s.32,2.21.45,3.32c0,.32.19.41.47.52,1.63.63,3.24,1.3,4.84,2a.72.72,0,0,0,.86-.06c1.71-1.31,3.43-2.61,5.08-3.85l6.43,6.43-2.51,3.33c-.46.6-.9,1.21-1.37,1.8a.62.62,0,0,0-.07.75c.7,1.62,1.38,3.25,2,4.89a.62.62,0,0,0,.58.48c2,.26,3.94.54,5.92.82l.6.1v9.06l-3.24.46c-1.13.16-2.26.3-3.38.49a.72.72,0,0,0-.44.38c-.7,1.66-1.36,3.33-2.08,5a.63.63,0,0,0,.12.75l3.57,4.72.32.45-6.42,6.4-2.35-1.77c-.91-.69-1.82-1.37-2.71-2.07a.79.79,0,0,0-1-.11c-1.57.71-3.17,1.35-4.77,2-.31.12-.46.22-.5.56-.26,1.95-.54,3.9-.82,5.85,0,.22-.07.44-.11.68h-9.05c-.16-1.09-.31-2.19-.47-3.29s-.32-2.17-.45-3.26c0-.34-.21-.43-.51-.55-1.62-.64-3.23-1.3-4.82-2a.67.67,0,0,0-.81.07c-1.57,1.21-3.14,2.39-4.72,3.59Z" transform="translate(-241.87 -232.81)"/><circle class="cls-5" cx="70.18" cy="48.37" r="12.25"/></svg>