<svg id="gears" xmlns="http://www.w3.org/2000/svg" viewBox="0 0 130.02 123.49"><defs><style>.cls-1,.cls-3,.cls-5{fill:none;stroke-miterlimit:10;}.cls-1,.cls-5{stroke:#201600;}.cls-1,.cls-3{stroke-width:5px;}.cls-2{fill:#e9a854;}.cls-3{stroke:#ab7849;}.cls-4{fill:#e9bb7e;}.cls-5{stroke-width:3px;}</style></defs><title>22</title><path class="cls-1" d="M291.64,240.09a45.8,45.8,0,1,1-24,29.41" transform="translate(-241.87 -220.88)"/><circle class="cls-2" cx="6.24" cy="83.13" r="6.24"/><path class="cls-2" d="M258.57,279.08l-7-7c.1-.14.21-.32.34-.49,1.29-1.7,2.57-3.42,3.89-5.11a.91.91,0,0,0,.1-1.11c-.76-1.7-1.46-3.43-2.13-5.17-.14-.37-.28-.53-.67-.58-2.14-.28-4.28-.59-6.42-.89l-.69-.1v-10l4.63-.64c.86-.12,1.72-.23,2.58-.39a.88.88,0,0,0,.52-.45c.76-1.79,1.48-3.61,2.26-5.4a.75.75,0,0,0-.13-.89c-1.43-1.87-2.86-3.76-4.23-5.57l7-7.07c1.51,1.15,3.17,2.28,4.68,3.58a2.09,2.09,0,0,0,2.83.28,28.2,28.2,0,0,1,4.34-1.72c.31-.11.46-.22.51-.57.28-2.16.6-4.32.9-6.48,0-.24.08-.48.12-.73H282c.17,1.2.34,2.39.5,3.57s.36,2.43.5,3.64c.05.35.21.45.52.57,1.78.7,3.55,1.42,5.3,2.18a.78.78,0,0,0,.94-.06c1.87-1.44,3.76-2.86,5.57-4.23l7,7.06L299.59,239c-.5.65-1,1.32-1.5,2a.68.68,0,0,0-.08.83c.77,1.78,1.51,3.56,2.22,5.36a.68.68,0,0,0,.63.53c2.16.28,4.32.59,6.48.89l.67.12v9.93l-3.56.5c-1.23.17-2.47.33-3.7.54a.78.78,0,0,0-.48.41c-.77,1.82-1.5,3.66-2.29,5.47a.72.72,0,0,0,.14.83q2,2.58,3.91,5.17c.14.17.26.35.36.49l-7.05,7-2.57-1.94c-1-.76-2-1.5-3-2.28a.87.87,0,0,0-1.05-.11c-1.72.77-3.47,1.48-5.23,2.16-.34.14-.5.25-.55.62-.28,2.14-.59,4.28-.89,6.42,0,.24-.08.48-.13.74H272l-.51-3.6c-.17-1.19-.36-2.38-.49-3.58,0-.38-.23-.47-.56-.6-1.78-.7-3.55-1.43-5.29-2.2a.73.73,0,0,0-.89.09c-1.72,1.32-3.44,2.62-5.17,3.92Zm18.44-13a12.45,12.45,0,1,0-12.47-12.46A12.47,12.47,0,0,0,277,266.08Z" transform="translate(-241.87 -220.88)"/><circle class="cls-2" cx="35.12" cy="32.76" r="6.24"/><circle class="cls-3" cx="24.31" cy="109.11" r="8.82"/><path class="cls-4" d="M297.33,326l-5.6-11.23c.17-.13.38-.3.6-.45,2.24-1.53,4.47-3.07,6.72-4.57a1.15,1.15,0,0,0,.57-1.3c-.23-2.35-.37-4.71-.48-7.06a.9.9,0,0,0-.57-1c-2.46-1.2-4.9-2.42-7.35-3.64l-.78-.41,4-11.93,5.82,1.08c1.08.2,2.15.42,3.24.57a1.06,1.06,0,0,0,.8-.33c1.65-1.85,3.23-3.75,4.89-5.58a.92.92,0,0,0,.2-1.11c-1-2.83-1.92-5.66-2.84-8.39L317.81,265c1.36,2,2.89,4,4.19,6.18a2.64,2.64,0,0,0,3.28,1.47,36.05,36.05,0,0,1,5.89-.32c.42,0,.65-.08.85-.48,1.21-2.49,2.44-4.95,3.68-7.43.13-.27.28-.53.43-.82l11.92,4c-.28,1.51-.55,3-.83,4.49s-.55,3.05-.86,4.57c-.09.44.07.62.39.89q2.79,2.33,5.48,4.74a1,1,0,0,0,1.16.3c2.83-1,5.67-1.92,8.38-2.84,1.87,3.76,3.73,7.48,5.64,11.3l-4.77,3.27c-.87.59-1.71,1.2-2.59,1.76a.86.86,0,0,0-.43,1c.21,2.44.39,4.88.51,7.32a.85.85,0,0,0,.55.88c2.48,1.21,4.95,2.45,7.43,3.68l.75.4-4,11.92-4.47-.82c-1.55-.29-3.1-.59-4.65-.84a1,1,0,0,0-.74.3c-1.66,1.88-3.27,3.79-4.94,5.65a.86.86,0,0,0-.17,1c.88,2.59,1.75,5.19,2.62,7.78.09.26.17.53.23.74l-11.27,5.59-2.31-3.36c-.89-1.3-1.79-2.6-2.66-3.92a1.1,1.1,0,0,0-1.22-.56c-2.38.24-4.76.38-7.15.5-.46,0-.69.09-.9.51-1.2,2.46-2.43,4.9-3.65,7.35l-.44.84-11.92-4q.42-2.25.84-4.53c.28-1.49.53-3,.84-4.48.1-.48-.08-.67-.43-1q-2.78-2.32-5.47-4.75a.93.93,0,0,0-1.1-.26c-2.58.9-5.18,1.77-7.77,2.64Zm27.34-8.2a15.75,15.75,0,1,0-10-20A15.78,15.78,0,0,0,324.67,317.76Z" transform="translate(-241.87 -220.88)"/><path class="cls-5" d="M298.53,326.48l-5.6-11.23c.17-.13.38-.3.61-.46,2.23-1.53,4.46-3.06,6.71-4.57a1.16,1.16,0,0,0,.58-1.29c-.24-2.35-.38-4.71-.49-7.07a.91.91,0,0,0-.57-1c-2.46-1.19-4.9-2.42-7.35-3.63l-.78-.41,4-11.93,5.82,1.08c1.08.2,2.16.42,3.24.57a1.09,1.09,0,0,0,.81-.33c1.64-1.85,3.23-3.75,4.89-5.58a.93.93,0,0,0,.19-1.11c-1-2.83-1.92-5.66-2.84-8.39L319,265.51c1.36,2,2.9,4,4.19,6.18a2.66,2.66,0,0,0,3.29,1.46,37.08,37.08,0,0,1,5.88-.32.79.79,0,0,0,.85-.48c1.21-2.48,2.45-5,3.68-7.42.13-.27.28-.54.43-.82l11.92,4c-.28,1.51-.55,3-.83,4.49s-.55,3.05-.86,4.57c-.08.43.07.61.4.88q2.78,2.33,5.48,4.75a1,1,0,0,0,1.16.3c2.82-1,5.66-1.92,8.37-2.84l5.64,11.3-4.77,3.27c-.86.59-1.71,1.2-2.59,1.76a.87.87,0,0,0-.43,1c.21,2.43.39,4.87.51,7.32a.86.86,0,0,0,.56.88c2.48,1.21,4.95,2.45,7.42,3.68.25.12.49.26.75.4l-4,11.92-4.48-.82c-1.55-.29-3.1-.6-4.65-.85a1,1,0,0,0-.74.31c-1.66,1.87-3.27,3.79-4.94,5.65a.86.86,0,0,0-.17,1c.88,2.59,1.75,5.19,2.62,7.78.09.26.17.53.23.73l-11.27,5.6-2.3-3.36c-.9-1.31-1.8-2.6-2.67-3.92a1.07,1.07,0,0,0-1.22-.56c-2.38.23-4.76.38-7.15.49-.46,0-.69.1-.9.52-1.2,2.46-2.43,4.9-3.65,7.35-.13.27-.28.54-.44.84l-11.92-4,.84-4.53c.28-1.49.53-3,.84-4.49.1-.47-.08-.66-.42-1-1.85-1.55-3.68-3.13-5.47-4.76a1,1,0,0,0-1.1-.25c-2.59.9-5.18,1.76-7.78,2.64Zm27.34-8.2a15.75,15.75,0,1,0-10-20A15.79,15.79,0,0,0,325.87,318.28Z" transform="translate(-241.87 -220.88)"/><path class="cls-5" d="M258.57,278.84l-7-7c.1-.14.21-.32.34-.49,1.29-1.71,2.57-3.42,3.89-5.11a.93.93,0,0,0,.1-1.12c-.76-1.7-1.46-3.43-2.13-5.17-.14-.37-.28-.53-.67-.58-2.14-.28-4.28-.58-6.42-.88l-.69-.11v-9.94l4.63-.65c.86-.12,1.72-.22,2.58-.39a.86.86,0,0,0,.52-.44c.76-1.8,1.48-3.62,2.26-5.41a.73.73,0,0,0-.13-.88c-1.43-1.88-2.86-3.76-4.23-5.58l7-7.07c1.51,1.15,3.17,2.29,4.68,3.59a2.1,2.1,0,0,0,2.83.27,29.21,29.21,0,0,1,4.34-1.71c.31-.12.46-.23.51-.57.28-2.17.6-4.33.9-6.49,0-.24.08-.47.12-.72H282c.17,1.19.34,2.38.5,3.57s.36,2.42.5,3.64c.05.35.21.44.52.56,1.78.7,3.55,1.42,5.3,2.19a.78.78,0,0,0,.94-.07c1.87-1.44,3.76-2.86,5.57-4.22l7,7-2.75,3.65c-.5.66-1,1.33-1.5,2a.68.68,0,0,0-.08.83q1.15,2.65,2.22,5.35a.67.67,0,0,0,.63.53q3.24.44,6.48.9l.67.11v9.93l-3.56.51c-1.23.17-2.47.33-3.7.53a.79.79,0,0,0-.48.42c-.77,1.81-1.5,3.65-2.29,5.46a.72.72,0,0,0,.14.83c1.31,1.72,2.61,3.45,3.91,5.17.14.18.26.36.36.5l-7.05,7-2.57-1.94c-1-.75-2-1.5-3-2.27a.85.85,0,0,0-1.05-.12c-1.72.78-3.47,1.49-5.23,2.17-.34.13-.5.24-.55.61-.28,2.14-.59,4.28-.89,6.42,0,.24-.08.48-.13.75H272l-.51-3.61c-.17-1.19-.36-2.38-.49-3.57,0-.38-.23-.48-.56-.61-1.78-.7-3.55-1.43-5.29-2.19a.73.73,0,0,0-.89.08c-1.72,1.32-3.44,2.62-5.17,3.92C258.94,278.58,258.76,278.71,258.57,278.84Z" transform="translate(-241.87 -220.88)"/><circle class="cls-5" cx="35.12" cy="32.76" r="11.53"/></svg>