<svg id="Layer_9" data-name="Layer 9" xmlns="http://www.w3.org/2000/svg" viewBox="0 0 105.2 110.1"><defs><style>.cls-1,.cls-3,.cls-5,.cls-6{fill:none;stroke-miterlimit:10;}.cls-1,.cls-5,.cls-6{stroke:#201600;}.cls-1,.cls-3{stroke-width:4px;}.cls-2{fill:#ab7849;}.cls-3{stroke:#e9bb7e;}.cls-4{fill:#e9a854;}.cls-5,.cls-6{stroke-width:3px;}.cls-6{stroke-linecap:round;}.cls-7{fill:#e9bb7e;}</style></defs><title>glass</title><path class="cls-1" d="M290.67,286.47a45.77,45.77,0,1,1,10.11,9.16" transform="translate(-268.84 -209.54)"/><circle class="cls-2" cx="3.88" cy="75.75" r="3.88"/><circle class="cls-3" cx="33.93" cy="102.97" r="5.13"/><circle class="cls-4" cx="58.08" cy="46.79" r="32.75"/><path class="cls-4" d="M316.68,279.56l-30.6,32c-1.86,1.94-6.14.88-9.56-2.39s-4.67-7.48-2.81-9.43l30.6-32" transform="translate(-268.84 -209.54)"/><line class="cls-4" x1="46.4" y1="39.53" x2="72.85" y2="38.92"/><line class="cls-4" x1="54.41" y1="33.1" x2="64.55" y2="32.87"/><circle class="cls-5" cx="58.11" cy="47.2" r="27.55"/><circle class="cls-5" cx="58.11" cy="47.2" r="19.04"/><path class="cls-5" d="M311.83,279.55,285.62,307c-1.59,1.67-4.45,1.53-6.37-.32s-2.2-4.68-.61-6.35l26.21-27.43" transform="translate(-268.84 -209.54)"/><line class="cls-6" x1="47.45" y1="51.16" x2="64.17" y2="35.88"/><line class="cls-6" x1="49" y1="42.51" x2="55.41" y2="36.65"/><circle class="cls-7" cx="49.25" cy="105.41" r="3.48"/></svg>