<svg id="pencil" xmlns="http://www.w3.org/2000/svg" viewBox="0 0 138.75 114.57"><defs><style>.cls-1,.cls-7{fill:none;}.cls-1,.cls-4,.cls-6{stroke:#201600;}.cls-1,.cls-4,.cls-6,.cls-7{stroke-miterlimit:10;}.cls-1{stroke-width:5px;}.cls-2{fill:#ab7849;}.cls-3,.cls-4{fill:#e9bb7e;}.cls-4{stroke-width:3px;}.cls-5{fill:#e9a854;}.cls-6{fill:#201600;}.cls-7{stroke:#e9bb7e;stroke-width:4px;}</style></defs><title>333</title><circle class="cls-1" cx="87.55" cy="66.2" r="45.87"/><circle class="cls-2" cx="21.75" cy="58.46" r="3.88"/><path class="cls-3" d="M326.2,572.79l-.44-.17-.55-.21-.27-.11c-.51-.2.55.25,0,0a19.07,19.07,0,0,1-3.11-1.69c-.31-.22.25.29-.16-.15l-.27-.27c-.23-.22.3.52.09.11a2.89,2.89,0,0,1,.12.58,3.34,3.34,0,0,1-.31.8c.21-.23-.54.3,0,0l.38-.21a4.56,4.56,0,0,1,.8-.31c.8-.25,1.62-.44,2.43-.63,1.36-.32,2.74-.6,4.12-.83l.83-.13.51-.08c.41-.06-.62.08,0,0s1.25-.15,1.87-.21a37.26,37.26,0,0,1,6.68,0l.73.07c.71.08-.08,0,.2,0,.51.09,1,.16,1.52.27a23.84,23.84,0,0,1,2.61.68c.39.13.78.28,1.17.43.65.24-.15-.09.1,0s.4.19.6.28a18.27,18.27,0,0,1,2.15,1.22c.32.21.62.44.93.66-.37-.26-.31-.25,0,0s.35.29.52.45a15.2,15.2,0,0,1,1.59,1.62c.14.16.26.33.39.47s-.35-.5,0,0,.47.67.7,1a19.63,19.63,0,0,1,1.14,2.06l.21.46c.29.6-.19-.52,0,.11.14.38.29.75.42,1.14.26.77.48,1.55.67,2.34s.34,1.69.46,2.54c-.07-.5,0-.34,0,0s.05.46.07.7c0,.45.08.9.1,1.35a40.39,40.39,0,0,1-.12,5.61c0,.47-.09.93-.14,1.4,0,.12-.12.89-.06.45l-.09.62q-.22,1.5-.54,3a70.58,70.58,0,0,1-3.89,12.38c-.28.67.11-.26-.18.41-.09.23-.19.45-.29.67-.25.57-.5,1.13-.76,1.68-.5,1.07-1,2.13-1.57,3.18-1.08,2.07-2.24,4.11-3.48,6.09s-2.63,4-4.06,6l-.52.69-.24.31c-.38.5.23-.28,0,0-.37.48-.75,1-1.14,1.43q-1.15,1.43-2.37,2.79-2.38,2.68-5,5.15c-.86.81-1.73,1.59-2.62,2.35-.44.36-.87.73-1.31,1.08l-.74.59a4.41,4.41,0,0,1-.39.3,59,59,0,0,1-11.86,7c-.34.15.34-.13-.23.1l-.84.34c-.53.2-1.07.4-1.6.58-1.05.36-2.1.69-3.17,1s-2.19.54-3.3.74c-.53.09-1.06.18-1.59.25l-.3,0-1,.1a39,39,0,0,1-6.66,0l-1.64-.17c-.46-.06,0,0,.12,0l-.46-.06-1-.17c-1.14-.21-2.28-.46-3.4-.77s-2.3-.68-3.43-1.1c-.56-.21-1.11-.43-1.67-.66.57.24-.4-.18-.52-.23l-.93-.43a51,51,0,0,1-6.89-4c-1.38-1-2.13-1.53-3.22-2.42-1.54-1.25-3-2.59-4.56-3.81A33.64,33.64,0,0,0,256,633.55a24.28,24.28,0,0,0-19.75,3.21,35.22,35.22,0,0,0-12,13.74,26,26,0,0,0-2.5,7.08,14,14,0,0,0,1.2,8.47,15.26,15.26,0,0,0,8.37,8.07A10.32,10.32,0,0,0,242,672c2.47-2.31,4.25-6.1,2.21-9.24-1.57-2.42-4.76-3.58-7.55-3.49s-5.73,1.66-5.83,4.85,4.89,3.22,5,0c0-.52-.14.48,0,.17s.2-.27-.09.16c.21-.32-.33.48,0,0s-.2.18-.18.14.26-.17.31-.18c.32-.07-.62.11-.11,0a3.59,3.59,0,0,0,.47-.12c.58-.19-.19,0,.17,0s.61,0,.9,0c.63,0-.11-.05.26,0a9.24,9.24,0,0,1,.91.21l.45.15c.35.12-.53-.28,0,0l.63.35c.56.33-.11-.21.31.26l.23.25c-.49-.55,0-.08,0,0s.24.76-.05-.15a3,3,0,0,0,.1.32c.22.49,0-.4,0-.07a3.49,3.49,0,0,1,0,.46c0-.57,0,.07-.12.31-.2.65.14-.24-.06.14s-.25.45-.4.67a5.66,5.66,0,0,1-3.21,2.43,5.61,5.61,0,0,1-3.65-.3c-2.91-1.19-5.14-4.23-6-7.54-.09-.35-.14-.71-.24-1.06.21.77,0,.27,0,0,0-.44,0-.87,0-1.31s0-.35,0-.17c.05-.23.08-.47.13-.71.11-.57.25-1.13.41-1.68s.32-1,.51-1.51c.1-.28.21-.55.31-.83.18-.43,0,0,0,0,.08-.18.16-.37.25-.56a31.61,31.61,0,0,1,1.94-3.63c.36-.59.74-1.16,1.13-1.73l.54-.75.29-.38c-.28.37.13-.17.19-.24a35.15,35.15,0,0,1,3.1-3.36,21.41,21.41,0,0,1,3.21-2.6,24.06,24.06,0,0,1,4-2.19c-.31.13.53-.2.67-.25.36-.13.71-.25,1.07-.36a22.44,22.44,0,0,1,2.32-.57l.62-.1c-.11,0-.42,0,.1,0s.77-.07,1.16-.09a19.12,19.12,0,0,1,2.51,0,19.68,19.68,0,0,1,4.77,1,24.82,24.82,0,0,1,5.15,2.39c3.31,2,6,4.61,9,7a57.09,57.09,0,0,0,7.21,4.84,43.37,43.37,0,0,0,28.58,5.07c9.22-1.58,17.64-6.24,24.83-12.09a84.22,84.22,0,0,0,18.68-21.9,78.7,78.7,0,0,0,10.07-25.11c1.46-7.45,1.68-15.45-1.52-22.5-3-6.57-9.28-10.69-16.31-11.76a43.87,43.87,0,0,0-14.59.48c-2.89.52-6.82.94-9,3.05-2.69,2.6-.38,5.7,2.1,7.25a24.82,24.82,0,0,0,4.94,2.27,2.5,2.5,0,0,0,1.33-4.82Z" transform="translate(-221.54 -563.4)"/><circle class="cls-4" cx="104.45" cy="71.96" r="15.59"/><path class="cls-5" d="M247.5,566.56A5,5,0,0,0,244,568.4c-2.18,2.66-4.37,5.32-6.49,8a5.26,5.26,0,0,0,.74,7.36c.19.17.39.33.59.49q30.59,24.76,61.2,49.5a4.37,4.37,0,0,0,2,.93c5.35.88,10.72,1.69,16.08,2.51,1.83.28,2.73-.85,2.07-2.59-2-5.18-3.93-10.36-5.93-15.52a3.45,3.45,0,0,0-1.08-1.35Q296.31,604,279.37,590.34,265.6,579.19,251.84,568A5.66,5.66,0,0,0,247.5,566.56Z" transform="translate(-221.54 -563.4)"/><path class="cls-6" d="M252.3,563.93a5.12,5.12,0,0,0-3.53,1.86c-2.2,2.69-4.41,5.37-6.55,8.11a5.3,5.3,0,0,0,.75,7.43c.19.17.39.33.59.49q30.92,25,61.84,50a4.61,4.61,0,0,0,2,.94c5.41.88,10.84,1.7,16.25,2.53,1.85.28,2.76-.86,2.09-2.62-2-5.23-4-10.46-6-15.68a3.52,3.52,0,0,0-1.09-1.37Q301.62,601.79,284.51,588q-13.92-11.26-27.82-22.53A5.74,5.74,0,0,0,252.3,563.93Zm51.17,61.71L263.39,593.2l8.71-10.78,40.08,32.45a19,19,0,0,0-2.71,3.4,11,11,0,0,1-3.32,4.1A17.78,17.78,0,0,0,303.47,625.64Zm-40.77-51.1c-3.07,3.79-6,7.41-8.95,11.07a2.2,2.2,0,0,1-.3-.2c-2.7-2.18-5.4-4.35-8.09-6.55a1.94,1.94,0,0,1-.27-3.05q3-3.76,6.07-7.5c1-1.21,2-1.31,3.23-.31,2.17,1.75,4.33,3.51,6.5,5.25C261.49,573.73,262.14,574.14,262.7,574.54Zm-6,13.5,8.78-10.86,3.59,2.9-8.78,10.85Zm55.33,42c-1.41-.23-2.73-.39-4-.65a1.54,1.54,0,0,1-1.18-2.41,6.06,6.06,0,0,1,3.12-3.14,2.7,2.7,0,0,0,1.75-2.19,6.12,6.12,0,0,1,2.44-3.69,1.53,1.53,0,0,1,2.55.64c.54,1.24,1,2.53,1.49,3.87A12.18,12.18,0,0,0,312.07,630.05Zm3.46.53a8.48,8.48,0,0,1,3.92-4.85l2.19,5.8Z" transform="translate(-221.54 -563.4)"/><circle class="cls-7" cx="26.94" cy="43.64" r="3.65"/></svg>