<svg id="sparkle" xmlns="http://www.w3.org/2000/svg" viewBox="0 0 102.65 82"><defs><style>.cls-1{fill:#e9bb7e;}.cls-2{fill:#ab7849;}.cls-3{fill:#e9a854;}</style></defs><title>Untitled-1</title><path class="cls-1" d="M264.54,339.24c-.11-1.13-.18-2.27-.36-3.4-.29-1.88-.58-3.76-1-5.61a9.15,9.15,0,0,0-7.12-7.16,47.83,47.83,0,0,0-7.53-1.21,7.81,7.81,0,0,1-1.5-.24l2.51-.25a37.54,37.54,0,0,0,7.2-1.31,9,9,0,0,0,6.26-6.27,37.54,37.54,0,0,0,1.31-7.2c.09-.83.17-1.66.34-2.5.08.83.13,1.66.25,2.47.29,1.95.55,3.91.93,5.84a9.45,9.45,0,0,0,8.08,8c2.58.48,5.2.76,7.8,1.13a1,1,0,0,1,.47.15l-2.54.24a36.62,36.62,0,0,0-7.39,1.39,8.85,8.85,0,0,0-6,6,36.49,36.49,0,0,0-1.39,7.39c-.09.84-.16,1.68-.24,2.51Z" transform="translate(-194.99 -257.24)"/><path class="cls-2" d="M286.08,298.17c-.07-.75-.12-1.5-.23-2.23-.2-1.23-.38-2.47-.67-3.69a6,6,0,0,0-4.67-4.69,31.76,31.76,0,0,0-4.94-.79,5.67,5.67,0,0,1-1-.16l1.65-.16a25.14,25.14,0,0,0,4.72-.86,5.91,5.91,0,0,0,4.11-4.12,24.36,24.36,0,0,0,.86-4.72c.06-.54.11-1.09.22-1.64.06.54.09,1.09.17,1.62.19,1.28.35,2.57.61,3.83a6.21,6.21,0,0,0,5.3,5.28c1.69.31,3.4.5,5.11.74a.61.61,0,0,1,.31.09c-.56.06-1.11.1-1.66.17a23.58,23.58,0,0,0-4.85.91,5.82,5.82,0,0,0-3.92,3.92,24.11,24.11,0,0,0-.9,4.85c-.06.54-.11,1.09-.17,1.64Z" transform="translate(-194.99 -257.24)"/><path class="cls-3" d="M225.19,317.79c-.2-2-.32-3.92-.62-5.86-.51-3.23-1-6.48-1.75-9.67-1.56-6.57-5.73-10.63-12.27-12.33a83.82,83.82,0,0,0-13-2.08,14.68,14.68,0,0,1-2.59-.41c1.44-.14,2.88-.27,4.32-.43a64.7,64.7,0,0,0,12.41-2.27A15.44,15.44,0,0,0,222.5,274a65.46,65.46,0,0,0,2.26-12.41,42.62,42.62,0,0,1,.58-4.3c.14,1.42.23,2.85.44,4.26.49,3.36.94,6.73,1.6,10.06,1.53,7.69,6.21,12.39,13.91,13.84,4.45.84,9,1.31,13.44,2a1.7,1.7,0,0,1,.81.25c-1.46.14-2.92.27-4.37.43a62,62,0,0,0-12.73,2.39,15.25,15.25,0,0,0-10.28,10.3,62.69,62.69,0,0,0-2.39,12.73c-.15,1.44-.28,2.88-.42,4.33Z" transform="translate(-194.99 -257.24)"/></svg>