<svg id="Layer_4" data-name="Layer 4" xmlns="http://www.w3.org/2000/svg" viewBox="0 0 60.55 60.54"><defs><style>.cls-1{fill:#e9a854;}</style></defs><title>Untitled-1</title><path class="cls-1" d="M747.29-4.23c-.2-1.95-.31-3.92-.62-5.85-.51-3.24-1-6.49-1.75-9.68-1.56-6.57-5.73-10.62-12.27-12.33a85,85,0,0,0-13-2.08,13.81,13.81,0,0,1-2.59-.41c1.44-.14,2.88-.27,4.32-.43a65.46,65.46,0,0,0,12.41-2.26,15.45,15.45,0,0,0,10.78-10.8,65.36,65.36,0,0,0,2.26-12.4,42.24,42.24,0,0,1,.58-4.3c.15,1.42.23,2.84.44,4.25.49,3.36.94,6.73,1.6,10.06,1.53,7.7,6.21,12.4,13.92,13.85,4.44.83,9,1.31,13.43,1.94a1.7,1.7,0,0,1,.81.25c-1.46.14-2.91.27-4.37.43a62.69,62.69,0,0,0-12.73,2.39,15.25,15.25,0,0,0-10.28,10.3,62.12,62.12,0,0,0-2.38,12.73c-.16,1.44-.29,2.89-.43,4.33Z" transform="translate(-717.09 64.77)"/></svg>