<?xml version="1.0" standalone="no"?>
<!DOCTYPE svg PUBLIC "-//W3C//DTD SVG 20010904//EN"
 "http://www.w3.org/TR/2001/REC-SVG-20010904/DTD/svg10.dtd">
<svg version="1.0" xmlns="http://www.w3.org/2000/svg"
 width="496.000000pt" height="512.000000pt" viewBox="0 0 496.000000 512.000000"
 preserveAspectRatio="xMidYMid meet">

<g transform="translate(0.000000,512.000000) scale(0.100000,-0.100000)"
fill="#000000" stroke="none">
<path d="M2245 5030 c-584 -65 -1080 -295 -1489 -690 -405 -391 -657 -893
-737 -1470 -18 -124 -18 -496 0 -620 64 -461 227 -852 510 -1220 89 -117 325
-350 444 -439 364 -272 748 -430 1197 -492 124 -17 496 -18 620 0 322 44 623
142 885 288 1203 671 1636 2166 977 3368 -325 593 -895 1036 -1551 1206 -187
49 -352 70 -576 74 -110 2 -236 0 -280 -5z m1296 -1490 c57 -16 80 -49 86
-122 8 -105 -77 -698 -202 -1418 -84 -475 -90 -503 -126 -578 -39 -80 -72
-102 -154 -102 -76 0 -130 25 -273 123 -59 41 -233 158 -387 261 -154 104
-301 210 -327 236 -43 43 -48 53 -48 93 0 33 7 54 29 84 16 22 136 141 267
263 384 360 566 544 562 571 -5 34 -30 45 -69 29 -19 -8 -275 -175 -571 -372
-295 -197 -558 -368 -585 -379 -78 -35 -186 -37 -316 -5 -146 35 -383 113
-434 142 -71 41 -71 104 1 153 76 52 1654 731 2136 918 181 71 300 108 360
112 8 0 31 -4 51 -9z"/>
</g>
</svg>
