<svg xmlns="http://www.w3.org/2000/svg" version="1.1" xmlns:xlink="http://www.w3.org/1999/xlink" xmlns:svgjs="http://svgjs.dev/svgjs" width="83.55" height="84.11"><svg id="SvgjsSvg1073" xmlns="http://www.w3.org/2000/svg" viewBox="0 0 83.55 84.11"><defs><style>.cls-1{fill:#3b3f52;}.cls-2{fill:#fff;}.cls-3{fill:#e9a854;}.cls-4{fill:#e9bb7e;}</style></defs><title>Untitled-1</title><path class="cls-1" d="M168.59,210.28l2-19.5a8.47,8.47,0,0,1,2.14-4.8l13.12-14.57a8.43,8.43,0,0,1,4.55-2.63l19.18-4.08a8.51,8.51,0,0,1,5.22.55l17.92,8a8.48,8.48,0,0,1,3.9,3.52l9.81,17a8.53,8.53,0,0,1,1.09,5.14l-2,19.5a8.56,8.56,0,0,1-2.14,4.8l-13.12,14.57a8.43,8.43,0,0,1-4.55,2.63l-19.18,4.08a8.54,8.54,0,0,1-5.23-.55l-17.91-8a8.43,8.43,0,0,1-3.9-3.52l-9.81-17A8.45,8.45,0,0,1,168.59,210.28Z" transform="translate(-165.71 -162.99)"></path><path class="cls-1" d="M166.14,210.4c.07-.47-.36-.34-.43-.42C165.74,210.81,166.25,210.38,166.14,210.4Z" transform="translate(-165.71 -162.99)"></path><polygon class="cls-1" points="3.2 54.07 3 54.06 3.81 54.63 3.2 54.07"></polygon><path class="cls-1" d="M171.75,222c.35-.82-1.13-1.72-1.42-2.73l.06-.22-.73-.11A17.06,17.06,0,0,1,171.75,222Z" transform="translate(-165.71 -162.99)"></path><path class="cls-1" d="M171.93,225.38c.14-.3.53.45-.28-.65a.64.64,0,0,1,0,.14A5.52,5.52,0,0,1,171.93,225.38Z" transform="translate(-165.71 -162.99)"></path><path class="cls-1" d="M171.65,224.87c-.32-.51,0,.46,0,0Z" transform="translate(-165.71 -162.99)"></path><path class="cls-1" d="M173.17,227.19l-.61-.56c-.06.22.26.85,0,.68C173.11,228,173.17,227.72,173.17,227.19Z" transform="translate(-165.71 -162.99)"></path><path class="cls-1" d="M174,227.58l-.3-.31C173.68,227.37,173.71,227.48,174,227.58Z" transform="translate(-165.71 -162.99)"></path><path class="cls-1" d="M173.08,226.63l.62.64c0-.15.24-.28-.27-.3C173.65,226.93,173.39,226.88,173.08,226.63Z" transform="translate(-165.71 -162.99)"></path><path class="cls-1" d="M172.93,226.15c-.09-.46-.29-1,.32-.44C172.41,224.45,172.08,224.9,172.93,226.15Z" transform="translate(-165.71 -162.99)"></path><path class="cls-1" d="M172.53,221.87l-.11-.62-.47-.32C172.19,221.09,172.36,222,172.53,221.87Z" transform="translate(-165.71 -162.99)"></path><path class="cls-1" d="M175.31,231.63c.16,0,.22-.43.36-.58l-.45-.42C175.28,230.94,175.48,231.48,175.31,231.63Z" transform="translate(-165.71 -162.99)"></path><path class="cls-1" d="M175.67,231.05l.66.62C176,231,175.79,230.92,175.67,231.05Z" transform="translate(-165.71 -162.99)"></path><polygon class="cls-1" points="9.04 64.31 7.85 63.35 9.19 64.55 9.04 64.31"></polygon><path class="cls-1" d="M177.09,234.7l-.67-.4a12.59,12.59,0,0,0,1.12.73Z" transform="translate(-165.71 -162.99)"></path><path class="cls-1" d="M179.14,236.94c-.59-.12.21.83-.32.61a4.87,4.87,0,0,0,2.13.86A3.66,3.66,0,0,1,179.14,236.94Z" transform="translate(-165.71 -162.99)"></path><path class="cls-1" d="M182,238.61c-.33-.08-.69-.12-1.09-.2A3.34,3.34,0,0,0,182,238.61Z" transform="translate(-165.71 -162.99)"></path><path class="cls-1" d="M177,233a1,1,0,0,0,0,.81l.2-.51Z" transform="translate(-165.71 -162.99)"></path><path class="cls-1" d="M177.18,233.28v0l.41.74C177.52,233.94,177.35,233.64,177.18,233.28Z" transform="translate(-165.71 -162.99)"></path><path class="cls-1" d="M177,232.92l0,.08C177,233,177,232.92,177,232.92Z" transform="translate(-165.71 -162.99)"></path><path class="cls-1" d="M175.56,229.47c.46.33,1.22,1.12,1,.05C176.14,229.35,176.26,230,175.56,229.47Z" transform="translate(-165.71 -162.99)"></path><path class="cls-1" d="M177.21,232.29l-.38-.86c-.08.08-.14.3-.37.14Z" transform="translate(-165.71 -162.99)"></path><polygon class="cls-1" points="11.85 69.62 11.5 69.3 11.64 69.61 11.85 69.62"></polygon><path class="cls-1" d="M180.42,237.21a13.79,13.79,0,0,1,1.59.68c-.57-.37-1.13-.78-1.65-1.17C180.21,236.77,179.81,236.78,180.42,237.21Z" transform="translate(-165.71 -162.99)"></path><path class="cls-1" d="M178.6,235.41l.1.07C178.68,235.41,178.65,235.36,178.6,235.41Z" transform="translate(-165.71 -162.99)"></path><polygon class="cls-1" points="20.83 76.94 20.79 76.83 20.75 76.89 20.83 76.94"></polygon><path class="cls-1" d="M180.32,236.59a1.92,1.92,0,0,0-.93-.6l1,.73C180.43,236.69,180.46,236.67,180.32,236.59Z" transform="translate(-165.71 -162.99)"></path><path class="cls-1" d="M183.4,239a6.59,6.59,0,0,0-.54-.49C183,238.7,183.29,239.07,183.4,239Z" transform="translate(-165.71 -162.99)"></path><path class="cls-1" d="M178.73,235.69l-.07,0C178.71,235.83,178.73,235.79,178.73,235.69Z" transform="translate(-165.71 -162.99)"></path><path class="cls-1" d="M178.73,235.69a2.56,2.56,0,0,0,.66.3l-.69-.51A.82.82,0,0,1,178.73,235.69Z" transform="translate(-165.71 -162.99)"></path><path class="cls-1" d="M189,238c-.23.33-1.33.24-2-.52-.93-.09-.93,1.34-.52,2.32.1-.14.17-.29,1.1-.13-.21-.33-1.65-1.29-.8-1.3,1.19.3.85.53,1.3,1-.26-.65,1.7,0,1.76-.8l-1.08-.2C188.81,238.24,189.23,238.23,189,238Z" transform="translate(-165.71 -162.99)"></path><path class="cls-1" d="M184.93,239.08l-.37-.11a4,4,0,0,1,1,1c.65.08.82,0,.92-.11l-1.67-.8Z" transform="translate(-165.71 -162.99)"></path><path class="cls-1" d="M183,238.28c.44-.27,1.34-.07,1-.72-1-.43-.83,0-1.57-.1,1.74.66-.54,0,.55.77a4.69,4.69,0,0,1-1-.34,9.31,9.31,0,0,1,.85.61l0,0h0c-.05-.08-.06-.12,0-.06h0a.55.55,0,0,1,.14-.12c.43.3,0,.14-.14.12l0,0h0l1.72.51A8.28,8.28,0,0,0,183,238.28Z" transform="translate(-165.71 -162.99)"></path><path class="cls-1" d="M177.86,229.88a.11.11,0,0,1-.06.1C177.9,230.05,178,230.07,177.86,229.88Z" transform="translate(-165.71 -162.99)"></path><path class="cls-1" d="M178,230.65c-.12-.09-.32-.09-.49-.48s.18-.1.29-.19c-.23-.16-.71-.62-.5.18l.12.08c.23.69.23,1.76.11,1.68A2.91,2.91,0,0,0,178,230.65Z" transform="translate(-165.71 -162.99)"></path><path class="cls-1" d="M179.7,234.78a8.88,8.88,0,0,0,1.39,1,9,9,0,0,1-.41-.82l-.12.2C180,234.43,179.91,234.74,179.7,234.78Z" transform="translate(-165.71 -162.99)"></path><polygon class="cls-1" points="20.9 77.2 20.54 77.54 21.58 77.3 20.9 77.2"></polygon><polygon class="cls-1" points="22.69 77.94 22.46 78.27 23.02 78.26 22.69 77.94"></polygon><path class="cls-1" d="M236.48,181.16l-.32-.33A2,2,0,0,0,236.48,181.16Z" transform="translate(-165.71 -162.99)"></path><path class="cls-1" d="M238,183.91l.21,0C238.08,183.81,238,183.79,238,183.91Z" transform="translate(-165.71 -162.99)"></path><path class="cls-1" d="M234.91,236.3c.7-.23,1.6-.37,1.22-.61l-.45-.15A2.13,2.13,0,0,1,234.91,236.3Z" transform="translate(-165.71 -162.99)"></path><path class="cls-1" d="M246.65,206.68l-.15.17.37.47Z" transform="translate(-165.71 -162.99)"></path><path class="cls-1" d="M244.91,206l.37-.8A3.39,3.39,0,0,0,244.91,206Z" transform="translate(-165.71 -162.99)"></path><path class="cls-1" d="M224.11,172.48l-.65.19C224.19,173,224,172.65,224.11,172.48Z" transform="translate(-165.71 -162.99)"></path><path class="cls-1" d="M208.45,246.47a5.7,5.7,0,0,0,1.4,0C209.15,246.33,208.55,246.08,208.45,246.47Z" transform="translate(-165.71 -162.99)"></path><path class="cls-1" d="M241.09,179.93c-.21-.19-.34-.25-.42-.19C240.87,179.94,241,180,241.09,179.93Z" transform="translate(-165.71 -162.99)"></path><path class="cls-1" d="M211.4,246.11a1.65,1.65,0,0,0-.31,0,5.67,5.67,0,0,1-1.24.37A1.84,1.84,0,0,0,211.4,246.11Z" transform="translate(-165.71 -162.99)"></path><path class="cls-1" d="M174,188.42l-.09.05S174,188.48,174,188.42Z" transform="translate(-165.71 -162.99)"></path><path class="cls-1" d="M167.25,204.8a5.61,5.61,0,0,1,.05-.75A2.07,2.07,0,0,0,167.25,204.8Z" transform="translate(-165.71 -162.99)"></path><path class="cls-1" d="M195.43,244.26c-.39-.14-.08,0,0,0Z" transform="translate(-165.71 -162.99)"></path><path class="cls-1" d="M194.31,241.88a.25.25,0,0,0,.23-.12A.31.31,0,0,1,194.31,241.88Z" transform="translate(-165.71 -162.99)"></path><path class="cls-1" d="M214.83,242.62h0C214.73,242.55,214.75,242.56,214.83,242.62Z" transform="translate(-165.71 -162.99)"></path><path class="cls-1" d="M195,243.83a2.46,2.46,0,0,0,.42.33A3.34,3.34,0,0,0,195,243.83Z" transform="translate(-165.71 -162.99)"></path><path class="cls-1" d="M194.94,244.05l-.31-.18C194.55,243.91,194.57,244,194.94,244.05Z" transform="translate(-165.71 -162.99)"></path><path class="cls-1" d="M196,244.47a3.29,3.29,0,0,1-.59-.31c.06.06.08.1.06.1Z" transform="translate(-165.71 -162.99)"></path><path class="cls-1" d="M197.81,168.56l-.09,0C197.35,168.8,197.52,168.73,197.81,168.56Z" transform="translate(-165.71 -162.99)"></path><path class="cls-1" d="M238.7,225.35s0,0,0,.05l.05,0Z" transform="translate(-165.71 -162.99)"></path><path class="cls-1" d="M239.45,224a1.36,1.36,0,0,1-.71,1.33l1.25.47Z" transform="translate(-165.71 -162.99)"></path><path class="cls-1" d="M232.67,176a5.91,5.91,0,0,1,.32.74c-1,0-1.33-.38-1.15.34.39-.55,1-.23,1.42.22s.78.94,1.45.75l.09.73c-.09-.18-.17-.16-.26-.34.1,1.48,1.35.36,2,1.94.21.57.25,1-.09.76l1,1c.17.34-.08.38-.25,0l1.1,1.7h0a8,8,0,0,1,1.22.75c.09.54-.25-.15-.33.05l.84.8c-.07.57-.83-.06-1.17-.75-.66,1.58.76.63,1.2,3l-.68-.83c-.33,1,.33,1.55.51,2.83.08-.37-.15-2.68.75-1.8a2.09,2.09,0,0,0,.83,1.2c-.41.25,0,.74.44,1.42l-.59.27c.6.66.85.44,1.35.74a1.44,1.44,0,0,1-.15,1.69c.69,1.39.16-1.32,1.17.2a5.07,5.07,0,0,0,.84,1.53,12.82,12.82,0,0,1,1,1.18c0,.72-.41,0-.52.28a5.22,5.22,0,0,1,.62.46c0,.15-.15.13-.23.12.25.47.66-.07.89.79.35.13.11.56-.21,1.15a2.44,2.44,0,0,0-.3,2.11c-.22.3-.38-.2-.63-.13a12.43,12.43,0,0,0,.76,3.11l-.54,1.21c.57-.87,1,.36,1.37,1.44a9.48,9.48,0,0,0,.61-.74l.17,1.68c-.13.18-.33,0-.56-.3,0,.12.08.23.12.32-.3.56-.64.21-1-.24l.46-.55c-.35-.45-.73-.87-1.12-.83a1.33,1.33,0,0,1,.12.56c-.09-.12-.18-.19-.25-.15s.05.23.18.52l-.74.29.27.12-.67,2.1c.55,1.61,1.46,3,1.5,5.52-.46-.66-.84-.22-1.45-.32.72-.59-.08-1.91.19-3.16-.14.65-.42.48-.5.3l.35,2.31c-.5-.1-.43.44-.7,1,1-.33.49,1.75.7,2.7-.34,0-.66-.23-.46-1.34-.9,1.13,1,1.78.19,2.69,0-.23.12-.35,0-.47.24.61-.47,1.81-.64,1.39l.08-.21a13.11,13.11,0,0,1-1.48,2.46c-.71,1-1.2,1.87-1,2.25a4.47,4.47,0,0,1-.66-1.06l0,4.33c-.35-.7-2.38-1-1.67-2.45a3.33,3.33,0,0,0-1.24,1.42c.28-.15,1.28.16,1.06.51a8.63,8.63,0,0,0-2.27.83c.41-.22.93.91.44,1.41-.06-.2-.88-.72-.8-1l-.33,2c.14-.46-.66-.69-1.15-.62.28,0-1,1.11-1.26,1.53l.69-.38c-1.44,1.35-.12,2.51-1.47,3.92,0-.33-.68-1.39-1.44-.75a19.1,19.1,0,0,1,.29,2.15,7.83,7.83,0,0,1,0,1.45,2.93,2.93,0,0,1-.5,1.4h-.5a10.35,10.35,0,0,1-1,1.2,13.56,13.56,0,0,0,.61-2.72,22.29,22.29,0,0,1,.37-2.84c-.69.37-.43-.11-1.15.73-.49.08.06-.76.26-1l-.93.88-.23.22-.16.14-.34.25c.25.23.11.58-.09.91s-.47.64-.31.87a6,6,0,0,0,1.22-1.84,1.33,1.33,0,0,1,.28,1.4,2.48,2.48,0,0,1-1.5,1.66c-.47-.07-.22-1.21-.38-1.39,0,.31-1.09.92-1.27.76a4.41,4.41,0,0,0,.46-.51.76.76,0,0,0-.49.18,1.12,1.12,0,0,0-.22.16l-.29.2a1.62,1.62,0,0,1-1.48.29c-.42.05-1.41-.58-1.4-.18a4.35,4.35,0,0,1,1.13,3.56,16.13,16.13,0,0,1-2.86-.53c-.8-.44.72-1.61,0-2,0,.19-.32.49-.46.59-.46-.06.06-.59-.86-.31,0,.7-1.92.35-.32.66-.88.38-1,.07-2.08.33.44.35-.65,1.67-1.53,2.05,0-.18-.24-.36-.36-.43-1.89.33-3,.25-4.72.61-.2-.12-1.09-.14-.79-.5a2.14,2.14,0,0,1-.94.58c-1.17-.36,1.18-.35.24-.87,0,.4-1.29.83-2,1.23.37.55,1.81-.26,2.53-.67.15.83-.92,2-2.79,2.75-1.68.41-.77-.47-1.06-.31a9.68,9.68,0,0,0-2.9.33,2.53,2.53,0,0,1-1.07.06,2.43,2.43,0,0,1-.65-.23,3.68,3.68,0,0,1-.66-.43c-.62-.87.4-1,.37-1.43,1.16.31,1.62,1.08,2.5,1.24a8.75,8.75,0,0,1-1-.52,4.15,4.15,0,0,1,1.67.23c-.36-.28-1.5-.52-2.7-1.14a24.45,24.45,0,0,1-3.52-1.84c-.42,0-1.1-.09-.9.23l.65.21c.4.65-1.42,0-.71.56a6,6,0,0,1-3.17-.82l0-.66c0,.18.63.68,1,.66-.6,0-1.47-1.57-2.33-1.07l.65.75c-1-.09-2.27,0-3.23-.6.23.77.27,0,.72,1-.28-1.09,2.66,1.22,2-.08.43,1.09,1.18.9,1.89,2,0-.2-.2-.51.64,0a1,1,0,0,1,.26-.08l.06,0,0,0c.05,0,.05,0,0,0a1,1,0,0,1-.32-.48c.62-.23,2,.41,2.58.4.48.32-.31.11-.11.44l.85,0c-.12.44,1.07,1.3-.26,1l1.1.51a4.21,4.21,0,0,0,2.23,1.14c.69.36,1.94,0,1.23.21a10.66,10.66,0,0,0,2.46,0l0,.12a6.6,6.6,0,0,0,1.81-.22c.66-.17,1-.33,1.52-.48a6.59,6.59,0,0,1,3.09-.33,6.53,6.53,0,0,1,2.26-.61l.28.34c.76-.3,2.45-.13,2.71-.6,1.07.85,3.88-.59,5.3-.7l0-.51a15.52,15.52,0,0,0,3-1l-.16-.42a4.42,4.42,0,0,1,2-.41,6.87,6.87,0,0,0,2.86-.85c0,.22-.54.44-.92.49a4.39,4.39,0,0,0,3.23-2.08c.42-.58.6-1,.91-1.39a2.9,2.9,0,0,1,1.07-.93,1.48,1.48,0,0,1,.73-.81.37.37,0,0,0-.06.1l.13-.13.59-.3a2.17,2.17,0,0,0-.53.23,7.75,7.75,0,0,0,.8-1.15l.5.16.07-.1c.47-.25.1-.45-.35-.49a3.43,3.43,0,0,0,.24-.7c.85.22.7-1.17,1.69-1-.07-.53,1.5-2.12,1-2.89.09.06.23,0,.05.19a2.78,2.78,0,0,0,1.08-1.26l.61.23.23-1.47c.78-.32,1.15-.41,1,.47.67-1.84.78-1.28,1.28-2.91l.24.32c.36-.42.56-1.43,1-1.46a2,2,0,0,0,.58-.31,4.94,4.94,0,0,0,.76-.76,8.37,8.37,0,0,0,1.39-2.47,11,11,0,0,0,.44-1.57c.05-.26.1-.55.14-.81l.1-.69a16.76,16.76,0,0,1,.58-2.57c-1.22.49.68-1.41-.21-1.63.3-.15.5-.57.68,0-.1-1.64.69-2.37,0-3.56.29-.16.37.39.55.24-.05-.14-.19-.54,0-.69s.21.26.3.53c.13-1.65-.7-1.9-1.48-2.11a1.45,1.45,0,0,0,0-1.87c.29-.26.61-.72.59.32.1-.58.75-3.47.12-3.6.18-.16.13-.8.08-1a24.37,24.37,0,0,0,.31-2.66l-.14.34c-.73-.55,0-1.12-.18-2.28l.08,0a2.85,2.85,0,0,0-.16-1.9,6.92,6.92,0,0,1-.48-1.86l-.37.34c-1,.21-.51-2.15-1.53-3.13v.56c-.67-.46.19-2.48-.07-3.19,0-.18.25.15.42.31-.44-2-.67.1-1.52-1.08.16-.4.92-.13.49-1,0-.56-2.36-1.89-2.46-3.36-.08.38-.16.76-.67.28-.59-.84-.53-2.9-1.7-3.29a.28.28,0,0,1,.08-.26c-.58-.57-1.58-2-2.2-2.22a1.1,1.1,0,0,0,0-1.22,5.38,5.38,0,0,0-1.17-1.46c-1-.94-2.07-1.44-1.6-2.05a10.73,10.73,0,0,0-1.24-.78,11.22,11.22,0,0,0-1.27-.58l.12-.12a3.55,3.55,0,0,0-2.66-.49c-.28-.24,0-.26.07-.32a6.05,6.05,0,0,0-4.2-1.31l0-.53c-.59.06-2.67-2-4.92-2.41a.37.37,0,0,1,.31-.1c-2.51-.48-4.87-3.68-6.45-2.4a10,10,0,0,0-1.95-.18c1.15.37,1,.57.67.68s-.75.26-.37.52c-.79-.15-2.12-.92-1-.88l.16.12c.29-.42-.43-.66-1.23-.73s-1.65,0-1.66-.29c-.3,0-.64.1-.9.16l-.76.15-1.53.28-3,.47c-2,.29-4,.57-5.91,1l.59.62-1.34.24c-.39-.09-.59-.46.37-.63-.59-.3-1.53.68-1.52.84-1.93.11.55-1,0-.88l-.76.22.19,0c-.57.43-.56.75-1.71,1-.75,0-.46-.36-.75-.33,0-.05-.11-.06-.45.07l-1.69.3.79.42c-.69.44-1.59.31-.67.78a1.73,1.73,0,0,0-.67-.17,3.89,3.89,0,0,0-1,.08,7.16,7.16,0,0,0-2.43,1,9.86,9.86,0,0,0-1.94,1.63,4.63,4.63,0,0,1-.94.89,8.16,8.16,0,0,1-2,2.79c.3-.16.92.13.1.91-.72-1.2-1.81,1.14-3.13,1.18,1-.18-2,2.48-.5,2.14-.71.62-.41-.29-1.12,0-1.11,2-3.55,3.44-5.27,5.61.1.15.61,0,.41.6a10.71,10.71,0,0,0-1.7.61c-.36.62.43,1.05-.7,1.77.22-.08.53-.18.37.22a7.51,7.51,0,0,0-1.09,2.15,10.52,10.52,0,0,0-.41,2.27c-.15,1.37-.23,2.76-.33,4.14a26.75,26.75,0,0,1-1.6,8.2c.41-.71.39-.21.35.35.12-.35.43.06.67,0l-.9,2.22c.62.49-.21,2.46.39,2.77l0-.74c.64,1,1.79-1.18,2.73-.94-.73-1.16,1.55-2.71.52-4.61.24-.37.28.37.52.18-.36-.49-.39-1-.1-2l.09.13c.19-2.84.72-4,1.33-7.15l-.5.18a3,3,0,0,1,.45-1.11c-.63-.85-.24,1.91-1,1.12.53-.4.66-1.6.8-2.77a7.18,7.18,0,0,1,.12-.74,2.81,2.81,0,0,1,.2-.58.87.87,0,0,1,.71-.56c.31-.71-.61,0-.27-.73l.36-.06-.23-.36a.78.78,0,0,1,1-.3c-.1.08-.15.32-.2.44a1.47,1.47,0,0,0,.42-.37c.14-.17.22-.29.41-.55a6,6,0,0,1,.73-.95l-.81.63c1.72-2.32,4.36-4.67,5.77-7.14h-.31c1.12-1.86,1.32-1.1,2.74-3l0,.1a3.7,3.7,0,0,1,.93-1.49c-.2.61,1.12-.49.82.28,1.21-2,.5-1.08.9-2.76l.51,0a2.44,2.44,0,0,1,.68-1.64c-.35.82.84,0,.51.89a5.63,5.63,0,0,0,1.84-1.33c.44-.4.9-.68,1.46-.21.3-.6-.13-.66-.62-.54s-.95.41-.76.2c-.58-.11.45-1.08,1.2-1.11s1.57,1,3.48.58c-.2,0-.19.11-.39.15.78.1,1.34-.65,2.31-.42.36-.71,1.15-.21,1.13-1l-1.72.55c1-.41,1.69-1.52,3.43-1.43a3,3,0,0,1-.85.68c.53.13.89-.35,1.44-.22,0,.81-2.1.62-3.05,1.44.59.22,1.91-1,1.55,0,.54-1.23,1.92-.26,3.05-1.35v.48a2.89,2.89,0,0,1,.95-.5l-.56.75c1-.74,2.13,0,3.08-.48-2.11.47-.6-.45-1.56-.6,2.47-1.18,1.76.89,4.63.05-.38.15-1.54,0-1-.31a5,5,0,0,1,1.74.17c1.91-.51-.4-.41.36-.87.76.43,1-.45,1.67-.79l.09.48c.85,0,.94-.19,1-.45s.18-.51,1-.23a7.23,7.23,0,0,0-.72.61,6.89,6.89,0,0,1,.81-.1l-.24.52a1.61,1.61,0,0,1,1-.08,2.83,2.83,0,0,1,.88.47c-.11-.42.49-.74,1.4-.35.51.54-.53.26.79.78-.41.14-.89.35-1.27-.31-.12.12-.41.15-.53.26a5.74,5.74,0,0,0,2.12,1,1.76,1.76,0,0,1-.46-.33l2.14.22c.23.3-.07.33-.36.35a12.81,12.81,0,0,1,1.33.25c-.3.29-.43.68-1.3.5l2,.39c.05.21.73.84.44.87.9.65,2.74.38,3.92,1.25a1,1,0,0,1,.57,0c1.2.63,2.1,1.56,3.78,1.72l.54,1c1.21.37-.76-1.31,1.25-.7,1.44.39.26.77.65,1.16l.72,0a2.29,2.29,0,0,1,.64,0,1.29,1.29,0,0,1,1.07.88C233.07,176.38,232.94,176.15,232.67,176Zm7.91,11.86c-.24-.21-.81-.57-.67-.9C240.56,187,240.46,187.36,240.58,187.88Zm4.91,21c-.14-.24,0-.57.2-.94A2,2,0,0,1,245.49,208.84Zm-45.8,36.89h0C200.27,246.17,200.08,246,199.69,245.73Zm-1.18-.75c-.15,0-.17.07-.15.15s.43.05.74.22C199.06,245.2,198.93,245.05,198.51,245Zm-5.66-78.69.29.07C192.57,166.62,192.72,166.47,192.85,166.29Z" transform="translate(-165.71 -162.99)"></path><path class="cls-1" d="M245.11,206.12a.5.5,0,0,1,.27-.1C245.32,205.9,245.22,205.89,245.11,206.12Z" transform="translate(-165.71 -162.99)"></path><path class="cls-1" d="M224.23,172.44l0,0a.11.11,0,0,0-.07.06Z" transform="translate(-165.71 -162.99)"></path><path class="cls-1" d="M219.85,239.6a1.43,1.43,0,0,1,.59.13C220.43,239.61,220.28,239.54,219.85,239.6Z" transform="translate(-165.71 -162.99)"></path><path class="cls-1" d="M191.46,242.74l.87.24a1.51,1.51,0,0,1-.67-.47C191.63,242.62,191.72,242.84,191.46,242.74Z" transform="translate(-165.71 -162.99)"></path><path class="cls-1" d="M185.63,236.87c-.14,0-.25-.1-.39-.1l-.06.22C185.69,237.2,186.12,237.19,185.63,236.87Z" transform="translate(-165.71 -162.99)"></path><path class="cls-1" d="M191.36,240.94c.1-.4-.46-.5-1.06-.69l.1.05C190,240.74,190.68,240.84,191.36,240.94Z" transform="translate(-165.71 -162.99)"></path><path class="cls-1" d="M190.16,240.21a2.74,2.74,0,0,1-.53-.23C189.47,240.16,189.83,240.12,190.16,240.21Z" transform="translate(-165.71 -162.99)"></path><path class="cls-1" d="M196.79,244.51c-.22-.22-.38.4-.46.18C195.82,245,198.38,244.92,196.79,244.51Z" transform="translate(-165.71 -162.99)"></path><polygon class="cls-1" points="25.73 76.52 25.73 77.07 26.22 76.84 25.73 76.52"></polygon><path class="cls-1" d="M195.79,241.84l-.85-.53c0,.09-.16.08-.32.05C195.18,241.63,195.75,242,195.79,241.84Z" transform="translate(-165.71 -162.99)"></path><path class="cls-1" d="M194.62,241.36a2.08,2.08,0,0,0-.76-.25A4.23,4.23,0,0,0,194.62,241.36Z" transform="translate(-165.71 -162.99)"></path><polygon class="cls-1" points="27.04 76.94 27.27 77.15 27.89 77.47 27.04 76.94"></polygon><path class="cls-1" d="M206.08,245c.38-.1.72-.23,1.06-.35.08-.2-.23-.24-.62-.09C206.29,244.74,205.88,244.86,206.08,245Z" transform="translate(-165.71 -162.99)"></path><path class="cls-1" d="M203,243.51c.23.16.23.27.35.46l.14-.6Z" transform="translate(-165.71 -162.99)"></path><path class="cls-1" d="M205.76,243.51c.06-.16,1.25-.73.1-.47C205.81,243.23,204.88,243.46,205.76,243.51Z" transform="translate(-165.71 -162.99)"></path><polygon class="cls-1" points="56.13 77.93 55.86 78 56.11 78.99 56.13 77.93"></polygon><path class="cls-1" d="M231.71,232.09c-1,.79.27.65-.74,1.31,0,.38.82-.54.77-.17C232.07,232.48,232.45,232.27,231.71,232.09Z" transform="translate(-165.71 -162.99)"></path><path class="cls-1" d="M231.74,233.23c-.05.12-.1.25-.15.4A1.6,1.6,0,0,0,231.74,233.23Z" transform="translate(-165.71 -162.99)"></path><polygon class="cls-1" points="0.68 44.77 0.38 45.57 0.78 45.08 0.68 44.77"></polygon><path class="cls-1" d="M167,209.42l-.67.12.53.56C166.83,209.91,166.82,209.54,167,209.42Z" transform="translate(-165.71 -162.99)"></path><path class="cls-1" d="M240.59,190.53l.17,0c.08-.19,0-.37-.18-.71Z" transform="translate(-165.71 -162.99)"></path><polygon class="cls-1" points="69.69 17.58 69.78 17.76 70.11 17.15 69.69 17.58"></polygon><path class="cls-1" d="M230,176.1c.34.18.8.24,1.15.42C230.31,176.28,230.17,175.39,230,176.1Z" transform="translate(-165.71 -162.99)"></path><path class="cls-2" d="M191.46,226.06V183.19h10.17v18.28l14.54-18.28h12.68L213,202.91l17.91,23.15H217.83L206.28,210.6l-4.65,5.3v10.16Z" transform="translate(-165.71 -162.99)"></path><path class="cls-3" d="M186.38,218c-.09-.86-.14-1.73-.28-2.59-.22-1.43-.44-2.87-.77-4.28a7,7,0,0,0-5.42-5.45,37.29,37.29,0,0,0-5.74-.92,6.69,6.69,0,0,1-1.15-.18l1.92-.19a28.41,28.41,0,0,0,5.48-1,6.81,6.81,0,0,0,4.77-4.77,29.3,29.3,0,0,0,1-5.49,18,18,0,0,1,.26-1.9c.06.63.1,1.26.19,1.88.22,1.49.41,3,.71,4.45a7.18,7.18,0,0,0,6.15,6.12c2,.37,4,.58,5.94.86a.83.83,0,0,1,.36.11l-1.93.19a27.56,27.56,0,0,0-5.63,1.06,6.75,6.75,0,0,0-4.55,4.55,27.67,27.67,0,0,0-1.05,5.63c-.07.64-.13,1.28-.19,1.92Z" transform="translate(-165.71 -162.99)"></path><path class="cls-4" d="M227.47,211.79c-.06-.6-.09-1.2-.19-1.79-.15-1-.3-2-.53-3a4.85,4.85,0,0,0-3.76-3.78,26.82,26.82,0,0,0-4-.64,4.31,4.31,0,0,1-.79-.12l1.32-.13a19.57,19.57,0,0,0,3.8-.7,4.72,4.72,0,0,0,3.31-3.31,20.48,20.48,0,0,0,.69-3.8c0-.44.09-.88.18-1.32,0,.44.07.87.13,1.31.16,1,.29,2.06.49,3.08a5,5,0,0,0,4.27,4.24c1.36.26,2.74.41,4.12.6a.46.46,0,0,1,.24.08l-1.33.13a18.6,18.6,0,0,0-3.91.73,4.69,4.69,0,0,0-3.15,3.16,19.87,19.87,0,0,0-.73,3.9c-.05.44-.08.88-.13,1.33Z" transform="translate(-165.71 -162.99)"></path></svg><style>@media (prefers-color-scheme: light) { :root { filter: none; } }
@media (prefers-color-scheme: dark) { :root { filter: none; } }
</style></svg>